<?xml version="1.0" encoding="UTF-8" standalone="no"?>
<!-- Created with Inkscape (http://www.inkscape.org/) -->

<svg
   width="210mm"
   height="297mm"
   viewBox="0 0 210 297"
   version="1.1"
   id="svg5"
   inkscape:version="1.2.1 (9c6d41e410, 2022-07-14)"
   sodipodi:docname="一维Yee元胞.svg"
   xmlns:inkscape="http://www.inkscape.org/namespaces/inkscape"
   xmlns:sodipodi="http://sodipodi.sourceforge.net/DTD/sodipodi-0.dtd"
   xmlns="http://www.w3.org/2000/svg"
   xmlns:svg="http://www.w3.org/2000/svg">
  <sodipodi:namedview
     id="namedview7"
     pagecolor="#ffffff"
     bordercolor="#666666"
     borderopacity="1.0"
     inkscape:pageshadow="2"
     inkscape:pageopacity="0.0"
     inkscape:pagecheckerboard="0"
     inkscape:document-units="mm"
     showgrid="true"
     inkscape:zoom="0.59080103"
     inkscape:cx="671.12273"
     inkscape:cy="606.80328"
     inkscape:window-width="1920"
     inkscape:window-height="1023"
     inkscape:window-x="0"
     inkscape:window-y="31"
     inkscape:window-maximized="1"
     inkscape:current-layer="layer1"
     inkscape:showpageshadow="0"
     inkscape:deskcolor="#d1d1d1">
    <inkscape:grid
       type="xygrid"
       id="grid824" />
  </sodipodi:namedview>
  <defs
     id="defs2">
    <marker
       style="overflow:visible;"
       id="marker1652"
       refX="0.0"
       refY="0.0"
       orient="auto"
       inkscape:stockid="Arrow1Send"
       inkscape:isstock="true">
      <path
         transform="scale(0.2) rotate(180) translate(6,0)"
         style="fill-rule:evenodd;fill:context-stroke;stroke:context-stroke;stroke-width:1.0pt;"
         d="M 0.0,0.0 L 5.0,-5.0 L -12.5,0.0 L 5.0,5.0 L 0.0,0.0 z "
         id="path1650" />
    </marker>
    <marker
       style="overflow:visible;"
       id="Arrow1Send"
       refX="0.0"
       refY="0.0"
       orient="auto"
       inkscape:stockid="Arrow1Send"
       inkscape:isstock="true">
      <path
         transform="scale(0.2) rotate(180) translate(6,0)"
         style="fill-rule:evenodd;fill:context-stroke;stroke:context-stroke;stroke-width:1.0pt;"
         d="M 0.0,0.0 L 5.0,-5.0 L -12.5,0.0 L 5.0,5.0 L 0.0,0.0 z "
         id="path1242" />
    </marker>
    <marker
       style="overflow:visible;"
       id="Arrow1Mend"
       refX="0.0"
       refY="0.0"
       orient="auto"
       inkscape:stockid="Arrow1Mend"
       inkscape:isstock="true">
      <path
         transform="scale(0.4) rotate(180) translate(10,0)"
         style="fill-rule:evenodd;fill:context-stroke;stroke:context-stroke;stroke-width:1.0pt;"
         d="M 0.0,0.0 L 5.0,-5.0 L -12.5,0.0 L 5.0,5.0 L 0.0,0.0 z "
         id="path1236" />
    </marker>
    <marker
       style="overflow:visible;"
       id="Arrow2Lend"
       refX="0.0"
       refY="0.0"
       orient="auto"
       inkscape:stockid="Arrow2Lend"
       inkscape:isstock="true">
      <path
         transform="scale(1.1) rotate(180) translate(1,0)"
         d="M 8.7185878,4.0337352 L -2.2072895,0.016013256 L 8.7185884,-4.0017078 C 6.9730900,-1.6296469 6.9831476,1.6157441 8.7185878,4.0337352 z "
         style="stroke:context-stroke;fill-rule:evenodd;fill:context-stroke;stroke-width:0.62500000;stroke-linejoin:round;"
         id="path1248" />
    </marker>
    <marker
       style="overflow:visible"
       id="marker1652-5"
       refX="0"
       refY="0"
       orient="auto"
       inkscape:stockid="Arrow1Send"
       inkscape:isstock="true">
      <path
         transform="matrix(-0.2,0,0,-0.2,-1.2,0)"
         style="fill:context-stroke;fill-rule:evenodd;stroke:context-stroke;stroke-width:1pt"
         d="M 0,0 5,-5 -12.5,0 5,5 Z"
         id="path1650-5" />
    </marker>
    <marker
       style="overflow:visible"
       id="marker1652-6"
       refX="0"
       refY="0"
       orient="auto"
       inkscape:stockid="Arrow1Send"
       inkscape:isstock="true">
      <path
         transform="matrix(-0.2,0,0,-0.2,-1.2,0)"
         style="fill:context-stroke;fill-rule:evenodd;stroke:context-stroke;stroke-width:1pt"
         d="M 0,0 5,-5 -12.5,0 5,5 Z"
         id="path1650-6" />
    </marker>
    <marker
       style="overflow:visible"
       id="marker1652-3"
       refX="0"
       refY="0"
       orient="auto"
       inkscape:stockid="Arrow1Send"
       inkscape:isstock="true">
      <path
         transform="matrix(-0.2,0,0,-0.2,-1.2,0)"
         style="fill:context-stroke;fill-rule:evenodd;stroke:context-stroke;stroke-width:1pt"
         d="M 0,0 5,-5 -12.5,0 5,5 Z"
         id="path1650-1" />
    </marker>
    <marker
       style="overflow:visible"
       id="marker1652-0"
       refX="0"
       refY="0"
       orient="auto"
       inkscape:stockid="Arrow1Send"
       inkscape:isstock="true">
      <path
         transform="matrix(-0.2,0,0,-0.2,-1.2,0)"
         style="fill:context-stroke;fill-rule:evenodd;stroke:context-stroke;stroke-width:1pt"
         d="M 0,0 5,-5 -12.5,0 5,5 Z"
         id="path1650-3" />
    </marker>
    <marker
       style="overflow:visible"
       id="marker1652-2"
       refX="0"
       refY="0"
       orient="auto"
       inkscape:stockid="Arrow1Send"
       inkscape:isstock="true">
      <path
         transform="matrix(-0.2,0,0,-0.2,-1.2,0)"
         style="fill:context-stroke;fill-rule:evenodd;stroke:context-stroke;stroke-width:1pt"
         d="M 0,0 5,-5 -12.5,0 5,5 Z"
         id="path1650-31" />
    </marker>
    <clipPath
       id="clipPath8502">
      <path
         clip-rule="nonzero"
         d="m 6,3 h 4 V 6.441406 H 6 Z m 0,0"
         id="path8585" />
    </clipPath>
    <clipPath
       id="clipPath9324">
      <path
         clip-rule="nonzero"
         d="m 7,3 h 4 V 7.605469 H 7 Z m 0,0"
         id="path8976" />
    </clipPath>
    <clipPath
       id="clipPath8819">
      <path
         clip-rule="nonzero"
         d="M 0,0 H 4 V 3.433594 H 0 Z m 0,0"
         id="path749" />
    </clipPath>
    <clipPath
       id="clipPath2340">
      <path
         clip-rule="nonzero"
         d="M 0,0 H 4 V 4.152344 H 0 Z m 0,0"
         id="path3312" />
    </clipPath>
    <clipPath
       id="clipPath9512">
      <path
         clip-rule="nonzero"
         d="M 0,0 H 3.855469 V 3.460938 H 0 Z m 0,0"
         id="path2011" />
    </clipPath>
    <clipPath
       id="clipPath5179">
      <path
         clip-rule="nonzero"
         d="m 5,0 h 6 V 4.289062 H 5 Z m 0,0"
         id="path4043" />
    </clipPath>
    <clipPath
       id="clipPath6738">
      <path
         clip-rule="nonzero"
         d="m 5,0 h 6 V 4.289062 H 5 Z m 0,0"
         id="path5027" />
    </clipPath>
    <clipPath
       id="clipPath1852">
      <path
         clip-rule="nonzero"
         d="m 5,0 h 6 V 4.289062 H 5 Z m 0,0"
         id="path4686" />
    </clipPath>
    <clipPath
       id="clipPath2637">
      <path
         clip-rule="nonzero"
         d="m 12,0 h 3.625 V 4 H 12 Z m 0,0"
         id="path4265" />
    </clipPath>
    <clipPath
       id="clipPath7203">
      <path
         clip-rule="nonzero"
         d="m 5,0 h 6 V 4.289062 H 5 Z m 0,0"
         id="path4521" />
    </clipPath>
    <clipPath
       id="clipPath7567">
      <path
         clip-rule="nonzero"
         d="m 12,0 h 3.625 V 4 H 12 Z m 0,0"
         id="path8081" />
    </clipPath>
  </defs>
  <g
     inkscape:label="图层 1"
     inkscape:groupmode="layer"
     id="layer1">
    <path
       style="fill:none;stroke:#000000;stroke-width:1.17469;stroke-linecap:butt;stroke-linejoin:miter;stroke-miterlimit:4;stroke-dasharray:none;stroke-opacity:1;marker-end:url(#Arrow1Send)"
       d="m -10.047303,164.36474 c 233.101963,0 233.101963,0 233.101963,0"
       id="path1145" />
    <circle
       style="fill:#00ff00;fill-opacity:1;stroke:#00ff00;stroke-width:0.21069;stroke-miterlimit:4;stroke-dasharray:none;stroke-opacity:1"
       id="path3264-62"
       cx="176.47591"
       cy="164.27226"
       r="0.27872565" />
    <circle
       style="fill:#00ff00;fill-opacity:1;stroke:#00ff00;stroke-width:0.21069;stroke-miterlimit:4;stroke-dasharray:none;stroke-opacity:1"
       id="path3264-7"
       cx="145.39561"
       cy="164.27226"
       r="0.27872565" />
    <circle
       style="fill:#00ff00;fill-opacity:1;stroke:#00ff00;stroke-width:0.21069;stroke-miterlimit:4;stroke-dasharray:none;stroke-opacity:1"
       id="path3264-9"
       cx="114.31538"
       cy="164.27226"
       r="0.27872565" />
    <circle
       style="fill:#00ff00;fill-opacity:1;stroke:#00ff00;stroke-width:0.21069;stroke-miterlimit:4;stroke-dasharray:none;stroke-opacity:1"
       id="path3264-4"
       cx="83.235123"
       cy="164.27226"
       r="0.27872565" />
    <circle
       style="fill:#00ff00;fill-opacity:1;stroke:#00ff00;stroke-width:0.21069;stroke-miterlimit:4;stroke-dasharray:none;stroke-opacity:1"
       id="path3264-6"
       cx="52.154873"
       cy="164.27226"
       r="0.27872565" />
    <circle
       style="fill:#000000;fill-opacity:0;stroke:#00ff00;stroke-width:0.587343;stroke-miterlimit:4;stroke-dasharray:none;stroke-opacity:1"
       id="path2328-71"
       cx="83.146866"
       cy="164.00311"
       r="3.8850324" />
    <circle
       style="fill:#000000;fill-opacity:0;stroke:#00ff00;stroke-width:0.587343;stroke-miterlimit:4;stroke-dasharray:none;stroke-opacity:1"
       id="path2328-74"
       cx="176.38763"
       cy="164.00311"
       r="3.8850324" />
    <circle
       style="fill:#000000;fill-opacity:0;stroke:#00ff00;stroke-width:0.587343;stroke-miterlimit:4;stroke-dasharray:none;stroke-opacity:1"
       id="path2328-0"
       cx="145.3074"
       cy="164.00311"
       r="3.8850324" />
    <circle
       style="fill:#000000;fill-opacity:0;stroke:#00ff00;stroke-width:0.587343;stroke-miterlimit:4;stroke-dasharray:none;stroke-opacity:1"
       id="path2328-4"
       cx="114.22711"
       cy="164.00311"
       r="3.8850324" />
    <circle
       style="fill:#000000;fill-opacity:0;stroke:#00ff00;stroke-width:0.587343;stroke-miterlimit:4;stroke-dasharray:none;stroke-opacity:1"
       id="path2328-5"
       cx="83.146866"
       cy="164.00311"
       r="3.8850324" />
    <circle
       style="fill:#000000;fill-opacity:0;stroke:#00ff00;stroke-width:0.587343;stroke-miterlimit:4;stroke-dasharray:none;stroke-opacity:1"
       id="path2328-7"
       cx="52.066593"
       cy="164.00311"
       r="3.8850324" />
    <path
       style="fill:#ff0000;fill-opacity:1;stroke:#ff0000;stroke-width:0.587343;stroke-linecap:butt;stroke-linejoin:miter;stroke-miterlimit:4;stroke-dasharray:none;stroke-opacity:1;marker-end:url(#marker1652)"
       d="m 98.733607,164.36474 c 0,-15.54018 0,-15.54018 0,-15.54018"
       id="path1544" />
    <path
       style="fill:#ff0000;fill-opacity:1;stroke:#ff0000;stroke-width:0.587343;stroke-linecap:butt;stroke-linejoin:miter;stroke-miterlimit:4;stroke-dasharray:none;stroke-opacity:1;marker-end:url(#marker1652-5)"
       d="m 67.65335,164.36479 c 0,-15.54018 0,-15.54018 0,-15.54018"
       id="path1544-9" />
    <path
       style="fill:#ff0000;fill-opacity:1;stroke:#ff0000;stroke-width:0.587343;stroke-linecap:butt;stroke-linejoin:miter;stroke-miterlimit:4;stroke-dasharray:none;stroke-opacity:1;marker-end:url(#marker1652-6)"
       d="m 36.573092,164.36479 c 0,-15.54018 0,-15.54018 0,-15.54018"
       id="path1544-5" />
    <path
       style="fill:#ff0000;fill-opacity:1;stroke:#ff0000;stroke-width:0.587343;stroke-linecap:butt;stroke-linejoin:miter;stroke-miterlimit:4;stroke-dasharray:none;stroke-opacity:1;marker-end:url(#marker1652-3)"
       d="m 5.4928176,164.36474 c 0,-15.54018 0,-15.54018 0,-15.54018"
       id="path1544-1" />
    <path
       style="fill:#ff0000;fill-opacity:1;stroke:#ff0000;stroke-width:0.587343;stroke-linecap:butt;stroke-linejoin:miter;stroke-miterlimit:4;stroke-dasharray:none;stroke-opacity:1;marker-end:url(#marker1652-0)"
       d="m 129.81386,164.36474 c 0,-15.54018 0,-15.54018 0,-15.54018"
       id="path1544-8" />
    <path
       style="fill:#ff0000;fill-opacity:1;stroke:#ff0000;stroke-width:0.587343;stroke-linecap:butt;stroke-linejoin:miter;stroke-miterlimit:4;stroke-dasharray:none;stroke-opacity:1;marker-end:url(#marker1652-2)"
       d="m 160.89413,164.36474 c 0,-15.54018 0,-15.54018 0,-15.54018"
       id="path1544-4" />
    <circle
       style="fill:#000000;fill-opacity:0;stroke:#00ff00;stroke-width:0.587343;stroke-miterlimit:4;stroke-dasharray:none;stroke-opacity:1"
       id="path2328"
       cx="20.986326"
       cy="164.00311"
       r="3.8850324" />
    <circle
       style="fill:#00ff00;fill-opacity:1;stroke:#00ff00;stroke-width:0.21069;stroke-miterlimit:4;stroke-dasharray:none;stroke-opacity:1"
       id="path3264"
       cx="21.074602"
       cy="164.27226"
       r="0.27872565" />
    <g
       inkscape:label=""
       transform="matrix(4.0850387,0,0,4.0850387,101.21635,144.61447)"
       id="g138"
       style="fill:#ff0000;fill-opacity:1">
      <g
         fill="#000000"
         fill-opacity="1"
         id="g19"
         transform="matrix(0.352778,0,0,0.352778,-0.137804,-0.00886355)"
         style="fill:#ff0000;fill-opacity:1">
        <g
           id="use17"
           transform="translate(0,5.447)"
           style="fill:#ff0000;fill-opacity:1">
          <path
             d="M 5.96875,-1.84375 C 5.984375,-1.875 6,-1.921875 6,-1.953125 c 0,-0.015625 0,-0.125 -0.125,-0.125 -0.078125,0 -0.09375,0.03125 -0.171875,0.203125 -0.5,1.171875 -0.875,1.609375 -2.1875,1.609375 h -1.4375 C 2,-0.28125 1.96875,-0.28125 1.96875,-0.328125 c 0,-0.0625 0.015625,-0.140625 0.046875,-0.1875 L 2.5625,-2.6875 h 0.84375 c 0.59375,0 0.703125,0.09375 0.703125,0.359375 0,0 0,0.125 -0.046875,0.359375 -0.015625,0.03125 -0.03125,0.078125 -0.03125,0.109375 0,0 0.015625,0.109375 0.125,0.109375 0.09375,0 0.109375,-0.046875 0.140625,-0.1875 L 4.71875,-3.609375 C 4.71875,-3.625 4.75,-3.75 4.75,-3.765625 4.75,-3.84375 4.6875,-3.875 4.625,-3.875 c -0.09375,0 -0.109375,0.046875 -0.140625,0.1875 -0.171875,0.625 -0.375,0.734375 -1.0625,0.734375 H 2.625 l 0.46875,-1.90625 C 3.171875,-5.140625 3.171875,-5.15625 3.5,-5.15625 h 1.25 c 0.953125,0 1.265625,0.1875 1.265625,0.890625 0,0.171875 -0.046875,0.375 -0.046875,0.515625 0,0.09375 0.0625,0.140625 0.125,0.140625 0.109375,0 0.109375,-0.078125 0.125,-0.203125 L 6.359375,-5.171875 C 6.375,-5.21875 6.375,-5.265625 6.375,-5.3125 6.375,-5.421875 6.28125,-5.421875 6.140625,-5.421875 H 1.9375 c -0.15625,0 -0.25,0 -0.25,0.15625 0,0.109375 0.109375,0.109375 0.234375,0.109375 0.03125,0 0.171875,0 0.3125,0.015625 0.171875,0.015625 0.1875,0.046875 0.1875,0.109375 0,0.046875 -0.015625,0.09375 -0.03125,0.125 l -1.0625,4.28125 c -0.078125,0.296875 -0.09375,0.359375 -0.6875,0.359375 -0.140625,0 -0.25,0 -0.25,0.15625 C 0.390625,0 0.5,0 0.640625,0 h 4.3125 c 0.1875,0 0.203125,0 0.265625,-0.140625 z m 0,0"
             id="path31"
             style="fill:#ff0000;fill-opacity:1" />
        </g>
      </g>
      <g
         clip-path="url(#clipPath8502)"
         id="g25"
         transform="matrix(0.352778,0,0,0.352778,-0.137804,-0.00886355)"
         style="fill:#ff0000;fill-opacity:1">
        <g
           fill="#000000"
           fill-opacity="1"
           id="g23"
           style="fill:#ff0000;fill-opacity:1">
          <g
             id="use21"
             transform="translate(6.2059999,6.4429998)"
             style="fill:#ff0000;fill-opacity:1">
            <path
               d="m 3.375,-2.359375 c -0.21875,0.0625 -0.265625,0.234375 -0.265625,0.328125 0,0.1875 0.15625,0.234375 0.234375,0.234375 0.1875,0 0.359375,-0.140625 0.359375,-0.375 0,-0.328125 -0.359375,-0.46875 -0.65625,-0.46875 -0.40625,0 -0.640625,0.3125 -0.703125,0.421875 -0.078125,-0.15625 -0.3125,-0.421875 -0.765625,-0.421875 -0.6875,0 -1.09375,0.71875 -1.09375,0.921875 0,0.03125 0.03125,0.078125 0.109375,0.078125 0.09375,0 0.109375,-0.03125 0.125,-0.078125 0.15625,-0.484375 0.5625,-0.71875 0.84375,-0.71875 0.296875,0 0.390625,0.1875 0.390625,0.390625 0,0.0625 0,0.125 -0.046875,0.3125 -0.140625,0.546875 -0.265625,1.09375 -0.296875,1.171875 -0.09375,0.21875 -0.3125,0.421875 -0.5625,0.421875 -0.03125,0 -0.203125,0 -0.34375,-0.09375 C 0.9375,-0.3125 0.96875,-0.5 0.96875,-0.546875 c 0,-0.15625 -0.125,-0.234375 -0.25,-0.234375 -0.15625,0 -0.34375,0.125 -0.34375,0.375 0,0.34375 0.375,0.46875 0.65625,0.46875 0.34375,0 0.59375,-0.234375 0.703125,-0.421875 0.125,0.25 0.40625,0.421875 0.75,0.421875 0.703125,0 1.09375,-0.734375 1.09375,-0.921875 0,-0.015625 0,-0.09375 -0.109375,-0.09375 -0.078125,0 -0.09375,0.046875 -0.109375,0.109375 C 3.1875,-0.328125 2.765625,-0.140625 2.5,-0.140625 c -0.21875,0 -0.375,-0.125 -0.375,-0.375 0,-0.125 0.015625,-0.25 0.078125,-0.453125 L 2.390625,-1.75 c 0.0625,-0.234375 0.09375,-0.34375 0.21875,-0.484375 C 2.6875,-2.328125 2.84375,-2.4375 3.03125,-2.4375 c 0.03125,0 0.203125,0 0.34375,0.078125 z m 0,0"
               id="path35"
               style="fill:#ff0000;fill-opacity:1" />
          </g>
        </g>
      </g>
    </g>
    <g
       inkscape:label=""
       transform="matrix(3.9476475,0,0,3.9476475,145.28322,172.63252)"
       id="g1633"
       style="fill:#00ff00;fill-opacity:1">
      <g
         fill="#000000"
         fill-opacity="1"
         id="g1623"
         transform="matrix(0.352778,0,0,0.352778,-0.137804,-0.00299865)"
         style="fill:#00ff00;fill-opacity:1">
        <g
           id="g1621"
           transform="translate(0,5.4460001)"
           style="fill:#00ff00;fill-opacity:1">
          <path
             d="m 6.359375,-4.796875 c 0.09375,-0.3125 0.109375,-0.375 0.65625,-0.375 0.1875,0 0.28125,0 0.28125,-0.15625 0,-0.015625 0,-0.109375 -0.140625,-0.109375 -0.140625,0 -0.328125,0.015625 -0.484375,0.015625 h -0.5 c -0.765625,0 -0.96875,-0.015625 -1.03125,-0.015625 -0.03125,0 -0.15625,0 -0.15625,0.140625 0,0.125 0.09375,0.125 0.234375,0.125 0.25,0 0.484375,0 0.484375,0.125 0,0.03125 0,0.03125 -0.03125,0.140625 l -0.46875,1.9375 H 2.625 l 0.46875,-1.859375 c 0.0625,-0.28125 0.078125,-0.34375 0.671875,-0.34375 0.15625,0 0.25,0 0.25,-0.15625 0,-0.015625 0,-0.109375 -0.140625,-0.109375 -0.140625,0 -0.34375,0.015625 -0.484375,0.015625 h -0.5 c -0.765625,0 -0.984375,-0.015625 -1.03125,-0.015625 -0.03125,0 -0.15625,0 -0.15625,0.140625 0,0.125 0.09375,0.125 0.21875,0.125 0.265625,0 0.5,0 0.5,0.125 0,0.03125 0,0.03125 -0.03125,0.140625 l -1.0625,4.28125 c -0.078125,0.296875 -0.09375,0.359375 -0.6875,0.359375 -0.140625,0 -0.25,0 -0.25,0.15625 C 0.390625,-0.078125 0.421875,0 0.53125,0 0.671875,0 0.875,-0.015625 1.015625,-0.03125 H 1.53125 C 2.296875,-0.03125 2.5,0 2.5625,0 c 0.046875,0 0.15625,0 0.15625,-0.15625 0,-0.109375 -0.109375,-0.109375 -0.234375,-0.109375 -0.03125,0 -0.171875,0 -0.3125,-0.015625 -0.15625,-0.015625 -0.1875,-0.03125 -0.1875,-0.109375 0,-0.046875 0.03125,-0.09375 0.03125,-0.125 L 2.5625,-2.703125 H 5.125 c -0.234375,0.9375 -0.546875,2.1875 -0.546875,2.1875 -0.078125,0.25 -0.21875,0.25 -0.703125,0.25 -0.09375,0 -0.1875,0 -0.1875,0.15625 C 3.6875,-0.078125 3.703125,0 3.8125,0 3.953125,0 4.15625,-0.015625 4.296875,-0.03125 H 4.8125 C 5.578125,-0.03125 5.78125,0 5.84375,0 5.890625,0 6,0 6,-0.15625 6,-0.265625 5.890625,-0.265625 5.765625,-0.265625 c -0.03125,0 -0.171875,0 -0.3125,-0.015625 C 5.296875,-0.296875 5.28125,-0.3125 5.28125,-0.390625 c 0,-0.046875 0.015625,-0.09375 0.015625,-0.125 z m 0,0"
             id="path1619"
             style="fill:#00ff00;fill-opacity:1" />
        </g>
      </g>
      <g
         clip-path="url(#clipPath9324)"
         id="g1631"
         transform="matrix(0.352778,0,0,0.352778,-0.137804,-0.00299865)"
         style="fill:#00ff00;fill-opacity:1">
        <g
           fill="#000000"
           fill-opacity="1"
           id="g1629"
           style="fill:#00ff00;fill-opacity:1">
          <g
             id="g1627"
             transform="translate(6.9569998,6.4429998)"
             style="fill:#00ff00;fill-opacity:1">
            <path
               d="m 3.5625,-2.296875 c 0.015625,-0.046875 0.015625,-0.0625 0.015625,-0.078125 0,-0.078125 -0.046875,-0.203125 -0.203125,-0.203125 -0.109375,0 -0.203125,0.0625 -0.25,0.15625 -0.03125,0.03125 -0.0625,0.21875 -0.09375,0.328125 l -0.3125,1.25 c -0.046875,0.171875 -0.0625,0.265625 -0.3125,0.484375 -0.0625,0.0625 -0.25,0.21875 -0.515625,0.21875 -0.4375,0 -0.4375,-0.390625 -0.4375,-0.5 0,-0.25 0.078125,-0.53125 0.34375,-1.1875 0.046875,-0.140625 0.0625,-0.1875 0.0625,-0.296875 0,-0.328125 -0.296875,-0.515625 -0.59375,-0.515625 -0.609375,0 -0.90625,0.796875 -0.90625,0.921875 0,0.03125 0.03125,0.078125 0.109375,0.078125 0.09375,0 0.109375,-0.03125 0.125,-0.078125 C 0.765625,-2.296875 1.078125,-2.4375 1.25,-2.4375 c 0.109375,0 0.15625,0.078125 0.15625,0.21875 0,0.125 -0.078125,0.328125 -0.140625,0.484375 -0.21875,0.53125 -0.28125,0.796875 -0.28125,1.015625 0,0.5625 0.421875,0.78125 0.890625,0.78125 0.078125,0 0.359375,0 0.6875,-0.28125 -0.078125,0.328125 -0.140625,0.5625 -0.421875,0.875 -0.109375,0.125 -0.375,0.359375 -0.734375,0.359375 -0.0625,0 -0.3125,0 -0.453125,-0.15625 C 1.21875,0.8125 1.25,0.578125 1.25,0.53125 1.25,0.359375 1.125,0.296875 1,0.296875 c -0.140625,0 -0.34375,0.125 -0.34375,0.390625 0,0.296875 0.28125,0.53125 0.75,0.53125 C 2.046875,1.21875 2.8125,0.75 2.984375,0 Z m 0,0"
               id="path1625"
               style="fill:#00ff00;fill-opacity:1" />
          </g>
        </g>
      </g>
    </g>
    <g
       inkscape:label=""
       transform="matrix(4.471503,0,0,4.471503,211.59809,167.88087)"
       id="g2729">
      <g
         clip-path="url(#clipPath8819)"
         id="g17"
         transform="matrix(0.352778,0,0,0.352778,-0.121267,0.0295011)">
        <g
           fill="#000000"
           fill-opacity="1"
           id="g15">
          <g
             id="use13"
             transform="translate(0,3.4319999)">
            <path
               d="M 1.15625,-0.6875 C 1.4375,-0.984375 1.53125,-1.078125 2.234375,-1.65625 2.3125,-1.734375 2.875,-2.1875 3.09375,-2.40625 c 0.5,-0.484375 0.8125,-0.921875 0.8125,-1.015625 0,-0.0625 -0.0625,-0.09375 -0.125,-0.09375 -0.078125,0 -0.078125,0.015625 -0.15625,0.140625 -0.25,0.359375 -0.421875,0.421875 -0.578125,0.421875 -0.140625,0 -0.234375,-0.0625 -0.40625,-0.21875 C 2.4375,-3.375 2.28125,-3.515625 2.03125,-3.515625 c -0.640625,0 -1.046875,0.71875 -1.046875,0.9375 0,0 0,0.09375 0.125,0.09375 0.078125,0 0.109375,-0.03125 0.140625,-0.125 0.09375,-0.234375 0.4375,-0.3125 0.671875,-0.3125 0.1875,0 0.375,0.046875 0.578125,0.109375 0.328125,0.09375 0.40625,0.09375 0.578125,0.09375 -0.15625,0.171875 -0.390625,0.390625 -1,0.890625 C 1.75,-1.546875 1.40625,-1.28125 1.1875,-1.0625 c -0.578125,0.578125 -0.84375,0.96875 -0.84375,1.046875 0,0.078125 0.0625,0.09375 0.125,0.09375 C 0.546875,0.078125 0.5625,0.0625 0.609375,0 c 0.15625,-0.234375 0.40625,-0.484375 0.703125,-0.484375 0.1875,0 0.265625,0.0625 0.421875,0.21875 0.25,0.25 0.390625,0.34375 0.625,0.34375 0.828125,0 1.328125,-0.984375 1.328125,-1.234375 0,-0.078125 -0.046875,-0.109375 -0.125,-0.109375 -0.078125,0 -0.09375,0.046875 -0.125,0.140625 C 3.28125,-0.734375 2.84375,-0.515625 2.453125,-0.515625 2.296875,-0.515625 2.125,-0.5625 1.875,-0.625 1.546875,-0.703125 1.46875,-0.703125 1.34375,-0.703125 c -0.078125,0 -0.125,0 -0.1875,0.015625 z m 0,0"
               id="path23" />
          </g>
        </g>
      </g>
    </g>
  </g>
</svg>
