<?xml version="1.0" encoding="UTF-8" standalone="no"?>
<!-- Created with Inkscape (http://www.inkscape.org/) -->

<svg
   width="210mm"
   height="297mm"
   viewBox="0 0 210 297"
   version="1.1"
   id="svg5"
   inkscape:version="1.2.1 (9c6d41e410, 2022-07-14)"
   sodipodi:docname="绘图.svg"
   xmlns:inkscape="http://www.inkscape.org/namespaces/inkscape"
   xmlns:sodipodi="http://sodipodi.sourceforge.net/DTD/sodipodi-0.dtd"
   xmlns="http://www.w3.org/2000/svg"
   xmlns:svg="http://www.w3.org/2000/svg">
  <sodipodi:namedview
     id="namedview7"
     pagecolor="#ffffff"
     bordercolor="#666666"
     borderopacity="1.0"
     inkscape:pageshadow="2"
     inkscape:pageopacity="0.0"
     inkscape:pagecheckerboard="0"
     inkscape:document-units="mm"
     showgrid="true"
     inkscape:zoom="2.8507295"
     inkscape:cx="412.70138"
     inkscape:cy="603.17894"
     inkscape:window-width="1920"
     inkscape:window-height="1023"
     inkscape:window-x="1920"
     inkscape:window-y="31"
     inkscape:window-maximized="1"
     inkscape:current-layer="layer1"
     inkscape:showpageshadow="0"
     inkscape:deskcolor="#d1d1d1">
    <inkscape:grid
       type="xygrid"
       id="grid824" />
  </sodipodi:namedview>
  <defs
     id="defs2">
    <marker
       style="overflow:visible;"
       id="Arrow2Mend"
       refX="0.0"
       refY="0.0"
       orient="auto"
       inkscape:stockid="Arrow2Mend"
       inkscape:isstock="true">
      <path
         transform="scale(0.6) rotate(180) translate(0,0)"
         d="M 8.7185878,4.0337352 L -2.2072895,0.016013256 L 8.7185884,-4.0017078 C 6.9730900,-1.6296469 6.9831476,1.6157441 8.7185878,4.0337352 z "
         style="stroke:context-stroke;fill-rule:evenodd;fill:context-stroke;stroke-width:0.62500000;stroke-linejoin:round;"
         id="path3674" />
    </marker>
    <marker
       style="overflow:visible"
       id="marker6265"
       refX="0.0"
       refY="0.0"
       orient="auto"
       inkscape:stockid="Arrow1Lstart"
       inkscape:isstock="true">
      <path
         transform="scale(0.8) translate(12.5,0)"
         style="fill-rule:evenodd;fill:context-stroke;stroke:context-stroke;stroke-width:1.0pt"
         d="M 0.0,0.0 L 5.0,-5.0 L -12.5,0.0 L 5.0,5.0 L 0.0,0.0 z "
         id="path6263" />
    </marker>
    <marker
       style="overflow:visible"
       id="marker5938"
       refX="0.0"
       refY="0.0"
       orient="auto"
       inkscape:stockid="Arrow1Sstart"
       inkscape:isstock="true">
      <path
         transform="scale(0.2) translate(6,0)"
         style="fill-rule:evenodd;fill:context-stroke;stroke:context-stroke;stroke-width:1.0pt"
         d="M 0.0,0.0 L 5.0,-5.0 L -12.5,0.0 L 5.0,5.0 L 0.0,0.0 z "
         id="path5936" />
    </marker>
    <marker
       style="overflow:visible"
       id="Arrow2Mstart"
       refX="0.0"
       refY="0.0"
       orient="auto"
       inkscape:stockid="Arrow2Mstart"
       inkscape:isstock="true">
      <path
         transform="scale(0.6) translate(0,0)"
         d="M 8.7185878,4.0337352 L -2.2072895,0.016013256 L 8.7185884,-4.0017078 C 6.9730900,-1.6296469 6.9831476,1.6157441 8.7185878,4.0337352 z "
         style="stroke:context-stroke;fill-rule:evenodd;fill:context-stroke;stroke-width:0.62500000;stroke-linejoin:round"
         id="path3671" />
    </marker>
    <marker
       style="overflow:visible"
       id="Arrow2Sstart"
       refX="0.0"
       refY="0.0"
       orient="auto"
       inkscape:stockid="Arrow2Sstart"
       inkscape:isstock="true">
      <path
         transform="scale(0.3) translate(-2.3,0)"
         d="M 8.7185878,4.0337352 L -2.2072895,0.016013256 L 8.7185884,-4.0017078 C 6.9730900,-1.6296469 6.9831476,1.6157441 8.7185878,4.0337352 z "
         style="stroke:context-stroke;fill-rule:evenodd;fill:context-stroke;stroke-width:0.62500000;stroke-linejoin:round"
         id="path3677" />
    </marker>
    <marker
       style="overflow:visible"
       id="marker5887"
       refX="0.0"
       refY="0.0"
       orient="auto"
       inkscape:stockid="Arrow1Lstart"
       inkscape:isstock="true">
      <path
         transform="scale(0.8) translate(12.5,0)"
         style="fill-rule:evenodd;fill:context-stroke;stroke:context-stroke;stroke-width:1.0pt"
         d="M 0.0,0.0 L 5.0,-5.0 L -12.5,0.0 L 5.0,5.0 L 0.0,0.0 z "
         id="path5885" />
    </marker>
    <marker
       style="overflow:visible;"
       id="marker5877"
       refX="0.0"
       refY="0.0"
       orient="auto"
       inkscape:stockid="Arrow1Send"
       inkscape:isstock="true">
      <path
         transform="scale(0.2) rotate(180) translate(6,0)"
         style="fill-rule:evenodd;fill:context-stroke;stroke:context-stroke;stroke-width:1.0pt;"
         d="M 0.0,0.0 L 5.0,-5.0 L -12.5,0.0 L 5.0,5.0 L 0.0,0.0 z "
         id="path5875" />
    </marker>
    <marker
       style="overflow:visible"
       id="marker5867"
       refX="0.0"
       refY="0.0"
       orient="auto"
       inkscape:stockid="Arrow1Lstart"
       inkscape:isstock="true">
      <path
         transform="scale(0.8) translate(12.5,0)"
         style="fill-rule:evenodd;fill:context-stroke;stroke:context-stroke;stroke-width:1.0pt"
         d="M 0.0,0.0 L 5.0,-5.0 L -12.5,0.0 L 5.0,5.0 L 0.0,0.0 z "
         id="path5865" />
    </marker>
    <marker
       style="overflow:visible;"
       id="marker5857"
       refX="0.0"
       refY="0.0"
       orient="auto"
       inkscape:stockid="Arrow1Send"
       inkscape:isstock="true">
      <path
         transform="scale(0.2) rotate(180) translate(6,0)"
         style="fill-rule:evenodd;fill:context-stroke;stroke:context-stroke;stroke-width:1.0pt;"
         d="M 0.0,0.0 L 5.0,-5.0 L -12.5,0.0 L 5.0,5.0 L 0.0,0.0 z "
         id="path5855" />
    </marker>
    <marker
       style="overflow:visible"
       id="marker5756"
       refX="0.0"
       refY="0.0"
       orient="auto"
       inkscape:stockid="Arrow1Sstart"
       inkscape:isstock="true">
      <path
         transform="scale(0.2) translate(6,0)"
         style="fill-rule:evenodd;fill:context-stroke;stroke:context-stroke;stroke-width:1.0pt"
         d="M 0.0,0.0 L 5.0,-5.0 L -12.5,0.0 L 5.0,5.0 L 0.0,0.0 z "
         id="path5754" />
    </marker>
    <marker
       style="overflow:visible;"
       id="marker5746"
       refX="0.0"
       refY="0.0"
       orient="auto"
       inkscape:stockid="Arrow1Send"
       inkscape:isstock="true">
      <path
         transform="scale(0.2) rotate(180) translate(6,0)"
         style="fill-rule:evenodd;fill:context-stroke;stroke:context-stroke;stroke-width:1.0pt;"
         d="M 0.0,0.0 L 5.0,-5.0 L -12.5,0.0 L 5.0,5.0 L 0.0,0.0 z "
         id="path5744" />
    </marker>
    <marker
       style="overflow:visible;"
       id="marker5736"
       refX="0.0"
       refY="0.0"
       orient="auto"
       inkscape:stockid="Arrow1Mend"
       inkscape:isstock="true">
      <path
         transform="scale(0.4) rotate(180) translate(10,0)"
         style="fill-rule:evenodd;fill:context-stroke;stroke:context-stroke;stroke-width:1.0pt;"
         d="M 0.0,0.0 L 5.0,-5.0 L -12.5,0.0 L 5.0,5.0 L 0.0,0.0 z "
         id="path5734" />
    </marker>
    <marker
       style="overflow:visible;"
       id="Arrow2Lend"
       refX="0.0"
       refY="0.0"
       orient="auto"
       inkscape:stockid="Arrow2Lend"
       inkscape:isstock="true">
      <path
         transform="scale(1.1) rotate(180) translate(1,0)"
         d="M 8.7185878,4.0337352 L -2.2072895,0.016013256 L 8.7185884,-4.0017078 C 6.9730900,-1.6296469 6.9831476,1.6157441 8.7185878,4.0337352 z "
         style="stroke:context-stroke;fill-rule:evenodd;fill:context-stroke;stroke-width:0.62500000;stroke-linejoin:round;"
         id="path3668" />
    </marker>
    <marker
       style="overflow:visible;"
       id="marker5718"
       refX="0.0"
       refY="0.0"
       orient="auto"
       inkscape:stockid="Arrow1Mend"
       inkscape:isstock="true">
      <path
         transform="scale(0.4) rotate(180) translate(10,0)"
         style="fill-rule:evenodd;fill:context-stroke;stroke:context-stroke;stroke-width:1.0pt;"
         d="M 0.0,0.0 L 5.0,-5.0 L -12.5,0.0 L 5.0,5.0 L 0.0,0.0 z "
         id="path5716" />
    </marker>
    <marker
       style="overflow:visible"
       id="Arrow1Sstart"
       refX="0.0"
       refY="0.0"
       orient="auto"
       inkscape:stockid="Arrow1Sstart"
       inkscape:isstock="true">
      <path
         transform="scale(0.2) translate(6,0)"
         style="fill-rule:evenodd;fill:context-stroke;stroke:context-stroke;stroke-width:1.0pt"
         d="M 0.0,0.0 L 5.0,-5.0 L -12.5,0.0 L 5.0,5.0 L 0.0,0.0 z "
         id="path3659" />
    </marker>
    <marker
       style="overflow:visible;"
       id="Arrow2Send"
       refX="0.0"
       refY="0.0"
       orient="auto"
       inkscape:stockid="Arrow2Send"
       inkscape:isstock="true">
      <path
         transform="scale(0.3) rotate(180) translate(-2.3,0)"
         d="M 8.7185878,4.0337352 L -2.2072895,0.016013256 L 8.7185884,-4.0017078 C 6.9730900,-1.6296469 6.9831476,1.6157441 8.7185878,4.0337352 z "
         style="stroke:context-stroke;fill-rule:evenodd;fill:context-stroke;stroke-width:0.62500000;stroke-linejoin:round;"
         id="path3680" />
    </marker>
    <marker
       style="overflow:visible;"
       id="Arrow1Send"
       refX="0.0"
       refY="0.0"
       orient="auto"
       inkscape:stockid="Arrow1Send"
       inkscape:isstock="true">
      <path
         transform="scale(0.2) rotate(180) translate(6,0)"
         style="fill-rule:evenodd;fill:context-stroke;stroke:context-stroke;stroke-width:1.0pt;"
         d="M 0.0,0.0 L 5.0,-5.0 L -12.5,0.0 L 5.0,5.0 L 0.0,0.0 z "
         id="path3662" />
    </marker>
    <marker
       style="overflow:visible;"
       id="Arrow1Mend"
       refX="0.0"
       refY="0.0"
       orient="auto"
       inkscape:stockid="Arrow1Mend"
       inkscape:isstock="true">
      <path
         transform="scale(0.4) rotate(180) translate(10,0)"
         style="fill-rule:evenodd;fill:context-stroke;stroke:context-stroke;stroke-width:1.0pt;"
         d="M 0.0,0.0 L 5.0,-5.0 L -12.5,0.0 L 5.0,5.0 L 0.0,0.0 z "
         id="path3656" />
    </marker>
    <marker
       style="overflow:visible"
       id="Arrow1Lstart"
       refX="0.0"
       refY="0.0"
       orient="auto"
       inkscape:stockid="Arrow1Lstart"
       inkscape:isstock="true">
      <path
         transform="scale(0.8) translate(12.5,0)"
         style="fill-rule:evenodd;fill:context-stroke;stroke:context-stroke;stroke-width:1.0pt"
         d="M 0.0,0.0 L 5.0,-5.0 L -12.5,0.0 L 5.0,5.0 L 0.0,0.0 z "
         id="path3647" />
    </marker>
    <marker
       style="overflow:visible"
       id="Arrow1Send-1"
       refX="0"
       refY="0"
       orient="auto"
       inkscape:stockid="Arrow1Send"
       inkscape:isstock="true">
      <path
         transform="matrix(-0.2,0,0,-0.2,-1.2,0)"
         style="fill:context-stroke;fill-rule:evenodd;stroke:context-stroke;stroke-width:1pt"
         d="M 0,0 5,-5 -12.5,0 5,5 Z"
         id="path3662-4" />
    </marker>
    <marker
       style="overflow:visible"
       id="Arrow1Send-1-7"
       refX="0"
       refY="0"
       orient="auto"
       inkscape:stockid="Arrow1Send"
       inkscape:isstock="true">
      <path
         transform="matrix(-0.2,0,0,-0.2,-1.2,0)"
         style="fill:context-stroke;fill-rule:evenodd;stroke:context-stroke;stroke-width:1pt"
         d="M 0,0 5,-5 -12.5,0 5,5 Z"
         id="path3662-4-3" />
    </marker>
    <marker
       style="overflow:visible"
       id="Arrow1Send-1-5"
       refX="0"
       refY="0"
       orient="auto"
       inkscape:stockid="Arrow1Send"
       inkscape:isstock="true">
      <path
         transform="matrix(-0.2,0,0,-0.2,-1.2,0)"
         style="fill:context-stroke;fill-rule:evenodd;stroke:context-stroke;stroke-width:1pt"
         d="M 0,0 5,-5 -12.5,0 5,5 Z"
         id="path3662-4-2" />
    </marker>
    <marker
       style="overflow:visible"
       id="Arrow1Send-1-5-9"
       refX="0"
       refY="0"
       orient="auto"
       inkscape:stockid="Arrow1Send"
       inkscape:isstock="true">
      <path
         transform="matrix(-0.2,0,0,-0.2,-1.2,0)"
         style="fill:context-stroke;fill-rule:evenodd;stroke:context-stroke;stroke-width:1pt"
         d="M 0,0 5,-5 -12.5,0 5,5 Z"
         id="path3662-4-2-2" />
    </marker>
    <marker
       style="overflow:visible"
       id="Arrow1Send-1-3"
       refX="0"
       refY="0"
       orient="auto"
       inkscape:stockid="Arrow1Send"
       inkscape:isstock="true">
      <path
         transform="matrix(-0.2,0,0,-0.2,-1.2,0)"
         style="fill:context-stroke;fill-rule:evenodd;stroke:context-stroke;stroke-width:1pt"
         d="M 0,0 5,-5 -12.5,0 5,5 Z"
         id="path3662-4-6" />
    </marker>
    <marker
       style="overflow:visible"
       id="Arrow1Send-1-0"
       refX="0"
       refY="0"
       orient="auto"
       inkscape:stockid="Arrow1Send"
       inkscape:isstock="true">
      <path
         transform="matrix(-0.2,0,0,-0.2,-1.2,0)"
         style="fill:context-stroke;fill-rule:evenodd;stroke:context-stroke;stroke-width:1pt"
         d="M 0,0 5,-5 -12.5,0 5,5 Z"
         id="path3662-4-21" />
    </marker>
    <marker
       style="overflow:visible"
       id="Arrow1Send-1-5-9-9"
       refX="0"
       refY="0"
       orient="auto"
       inkscape:stockid="Arrow1Send"
       inkscape:isstock="true">
      <path
         transform="matrix(-0.2,0,0,-0.2,-1.2,0)"
         style="fill:context-stroke;fill-rule:evenodd;stroke:context-stroke;stroke-width:1pt"
         d="M 0,0 5,-5 -12.5,0 5,5 Z"
         id="path3662-4-2-2-7" />
    </marker>
    <marker
       style="overflow:visible"
       id="Arrow1Send-1-3-6"
       refX="0"
       refY="0"
       orient="auto"
       inkscape:stockid="Arrow1Send"
       inkscape:isstock="true">
      <path
         transform="matrix(-0.2,0,0,-0.2,-1.2,0)"
         style="fill:context-stroke;fill-rule:evenodd;stroke:context-stroke;stroke-width:1pt"
         d="M 0,0 5,-5 -12.5,0 5,5 Z"
         id="path3662-4-6-5" />
    </marker>
    <marker
       style="overflow:visible"
       id="Arrow1Sstart-9"
       refX="0"
       refY="0"
       orient="auto"
       inkscape:stockid="Arrow1Sstart"
       inkscape:isstock="true">
      <path
         transform="matrix(0.2,0,0,0.2,1.2,0)"
         style="fill:context-stroke;fill-rule:evenodd;stroke:context-stroke;stroke-width:1pt"
         d="M 0,0 5,-5 -12.5,0 5,5 Z"
         id="path3659-6" />
    </marker>
    <marker
       style="overflow:visible"
       id="Arrow1Sstart-8"
       refX="0"
       refY="0"
       orient="auto"
       inkscape:stockid="Arrow1Sstart"
       inkscape:isstock="true">
      <path
         transform="matrix(0.2,0,0,0.2,1.2,0)"
         style="fill:context-stroke;fill-rule:evenodd;stroke:context-stroke;stroke-width:1pt"
         d="M 0,0 5,-5 -12.5,0 5,5 Z"
         id="path3659-3" />
    </marker>
    <marker
       style="overflow:visible"
       id="Arrow1Send-1-3-3"
       refX="0"
       refY="0"
       orient="auto"
       inkscape:stockid="Arrow1Send"
       inkscape:isstock="true">
      <path
         transform="matrix(-0.2,0,0,-0.2,-1.2,0)"
         style="fill:context-stroke;fill-rule:evenodd;stroke:context-stroke;stroke-width:1pt"
         d="M 0,0 5,-5 -12.5,0 5,5 Z"
         id="path3662-4-6-2" />
    </marker>
    <marker
       style="overflow:visible"
       id="Arrow1Send-1-3-8"
       refX="0"
       refY="0"
       orient="auto"
       inkscape:stockid="Arrow1Send"
       inkscape:isstock="true">
      <path
         transform="matrix(-0.2,0,0,-0.2,-1.2,0)"
         style="fill:context-stroke;fill-rule:evenodd;stroke:context-stroke;stroke-width:1pt"
         d="M 0,0 5,-5 -12.5,0 5,5 Z"
         id="path3662-4-6-4" />
    </marker>
    <marker
       style="overflow:visible"
       id="Arrow1Send-1-5-6"
       refX="0"
       refY="0"
       orient="auto"
       inkscape:stockid="Arrow1Send"
       inkscape:isstock="true">
      <path
         transform="matrix(-0.2,0,0,-0.2,-1.2,0)"
         style="fill:context-stroke;fill-rule:evenodd;stroke:context-stroke;stroke-width:1pt"
         d="M 0,0 5,-5 -12.5,0 5,5 Z"
         id="path3662-4-2-1" />
    </marker>
    <marker
       style="overflow:visible"
       id="Arrow1Send-1-3-7"
       refX="0"
       refY="0"
       orient="auto"
       inkscape:stockid="Arrow1Send"
       inkscape:isstock="true">
      <path
         transform="matrix(-0.2,0,0,-0.2,-1.2,0)"
         style="fill:context-stroke;fill-rule:evenodd;stroke:context-stroke;stroke-width:1pt"
         d="M 0,0 5,-5 -12.5,0 5,5 Z"
         id="path3662-4-6-1" />
    </marker>
    <marker
       style="overflow:visible"
       id="marker5938-9"
       refX="0"
       refY="0"
       orient="auto"
       inkscape:stockid="Arrow1Sstart"
       inkscape:isstock="true">
      <path
         transform="matrix(0.2,0,0,0.2,1.2,0)"
         style="fill:context-stroke;fill-rule:evenodd;stroke:context-stroke;stroke-width:1pt"
         d="M 0,0 5,-5 -12.5,0 5,5 Z"
         id="path5936-9" />
    </marker>
    <clipPath
       id="clipPath174">
      <path
         clip-rule="nonzero"
         d="M 5,2 H 9 V 5.367188 H 5 Z m 0,0"
         id="path966" />
    </clipPath>
    <clipPath
       id="clipPath3193">
      <path
         clip-rule="nonzero"
         d="M 5,2 H 9 V 4.398438 H 5 Z m 0,0"
         id="path8360" />
    </clipPath>
    <clipPath
       id="clipPath9268">
      <path
         clip-rule="nonzero"
         d="M 5,2 H 9 V 4.398438 H 5 Z m 0,0"
         id="path8323" />
    </clipPath>
    <clipPath
       id="clipPath9009">
      <path
         clip-rule="nonzero"
         d="M 5,2 H 9 V 4.398438 H 5 Z m 0,0"
         id="path6053" />
    </clipPath>
    <clipPath
       id="clipPath3812">
      <path
         clip-rule="nonzero"
         d="M 5,2 H 9 V 4.398438 H 5 Z m 0,0"
         id="path6178" />
    </clipPath>
    <clipPath
       id="clipPath377">
      <path
         clip-rule="nonzero"
         d="M 5,2 H 9 V 5.367188 H 5 Z m 0,0"
         id="path4208" />
    </clipPath>
    <clipPath
       id="clipPath4537">
      <path
         clip-rule="nonzero"
         d="M 6,2 H 9 V 4.398438 H 6 Z m 0,0"
         id="path6698" />
    </clipPath>
    <clipPath
       id="clipPath7480">
      <path
         clip-rule="nonzero"
         d="M 0,0 H 3 V 4.980469 H 0 Z m 0,0"
         id="path1168" />
    </clipPath>
    <clipPath
       id="clipPath1055">
      <path
         clip-rule="nonzero"
         d="M 3,0 H 7 V 4.980469 H 3 Z m 0,0"
         id="path6919" />
    </clipPath>
    <clipPath
       id="clipPath537">
      <path
         clip-rule="nonzero"
         d="m 9,0 h 3 V 4.980469 H 9 Z m 0,0"
         id="path6878" />
    </clipPath>
    <clipPath
       id="clipPath8360">
      <path
         clip-rule="nonzero"
         d="m 14,0 h 5 v 4.980469 h -5 z m 0,0"
         id="path7478" />
    </clipPath>
    <clipPath
       id="clipPath5921">
      <path
         clip-rule="nonzero"
         d="m 24,3 h 2 v 1.980469 h -2 z m 0,0"
         id="path2759" />
    </clipPath>
    <clipPath
       id="clipPath5597">
      <path
         clip-rule="nonzero"
         d="m 31,0 h 2.914062 V 4.980469 H 31 Z m 0,0"
         id="path2638" />
    </clipPath>
    <clipPath
       id="clipPath3719">
      <path
         clip-rule="nonzero"
         d="M 0,0 H 3 V 4.980469 H 0 Z m 0,0"
         id="path3501" />
    </clipPath>
    <clipPath
       id="clipPath959">
      <path
         clip-rule="nonzero"
         d="m 7,0 h 5 V 4.980469 H 7 Z m 0,0"
         id="path8455" />
    </clipPath>
    <clipPath
       id="clipPath2330">
      <path
         clip-rule="nonzero"
         d="m 17,3 h 2 v 1.980469 h -2 z m 0,0"
         id="path82" />
    </clipPath>
    <clipPath
       id="clipPath524">
      <path
         clip-rule="nonzero"
         d="m 20,0 h 4 v 4.980469 h -4 z m 0,0"
         id="path7696" />
    </clipPath>
    <clipPath
       id="clipPath993">
      <path
         clip-rule="nonzero"
         d="m 24,3 h 2 v 1.980469 h -2 z m 0,0"
         id="path457" />
    </clipPath>
    <clipPath
       id="clipPath3741">
      <path
         clip-rule="nonzero"
         d="m 31,0 h 2 v 4.980469 h -2 z m 0,0"
         id="path8068" />
    </clipPath>
    <clipPath
       id="clipPath5423">
      <path
         clip-rule="nonzero"
         d="M 0,0 H 3 V 4.980469 H 0 Z m 0,0"
         id="path3670" />
    </clipPath>
    <clipPath
       id="clipPath9625">
      <path
         clip-rule="nonzero"
         d="M 3,0 H 7 V 4.980469 H 3 Z m 0,0"
         id="path6189" />
    </clipPath>
    <clipPath
       id="clipPath5425">
      <path
         clip-rule="nonzero"
         d="m 9,0 h 3 V 4.980469 H 9 Z m 0,0"
         id="path7028" />
    </clipPath>
    <clipPath
       id="clipPath8501">
      <path
         clip-rule="nonzero"
         d="m 12,3 h 2 v 1.980469 h -2 z m 0,0"
         id="path1581" />
    </clipPath>
    <clipPath
       id="clipPath8288">
      <path
         clip-rule="nonzero"
         d="m 21,0 h 5 v 4.980469 h -5 z m 0,0"
         id="path379" />
    </clipPath>
    <clipPath
       id="clipPath5179">
      <path
         clip-rule="nonzero"
         d="m 28,0 h 5 v 4.980469 h -5 z m 0,0"
         id="path8035" />
    </clipPath>
    <clipPath
       id="clipPath1991">
      <path
         clip-rule="nonzero"
         d="M 0,0 H 3.945312 V 2.144531 H 0 Z m 0,0"
         id="path700" />
    </clipPath>
    <clipPath
       id="clipPath741">
      <path
         clip-rule="nonzero"
         d="M 0,0 H 4 V 2.574219 H 0 Z m 0,0"
         id="path585" />
    </clipPath>
    <clipPath
       id="clipPath2110">
      <path
         clip-rule="nonzero"
         d="M 0,0 H 4 V 3.734375 H 0 Z m 0,0"
         id="path7789" />
    </clipPath>
    <clipPath
       id="clipPath8157">
      <path
         clip-rule="nonzero"
         d="M 0,0 H 3.796875 V 2.574219 H 0 Z m 0,0"
         id="path3474" />
    </clipPath>
  </defs>
  <g
     inkscape:label="图层 1"
     inkscape:groupmode="layer"
     id="layer1">
    <rect
       style="fill:#ffffff;fill-opacity:0;stroke:#000000;stroke-width:0.2;stroke-miterlimit:4;stroke-dasharray:none;stroke-opacity:1"
       id="rect1096"
       width="26.458326"
       height="26.458326"
       x="70.114594"
       y="152.13542" />
    <path
       style="fill:none;stroke:#00ff00;stroke-width:0.479;stroke-linecap:butt;stroke-linejoin:miter;stroke-miterlimit:4;stroke-dasharray:none;stroke-opacity:1;marker-start:url(#marker5938)"
       d="m 85.725001,178.59375 h -5.027084 v 0"
       id="path5219-2" />
    <path
       style="fill:none;stroke:#00ff00;stroke-width:0.479;stroke-linecap:butt;stroke-linejoin:miter;stroke-miterlimit:4;stroke-dasharray:none;stroke-opacity:1;marker-end:url(#Arrow1Send-1-7)"
       d="m 70.114583,168.01042 c 0,-1.76389 0,1.76388 0,-1.76389 0,-3.52778 0,-3.52778 0,-3.52778"
       id="path3565-6-7" />
    <path
       style="fill:none;stroke:#000000;stroke-width:0.2;stroke-linecap:butt;stroke-linejoin:miter;stroke-opacity:1;stroke-miterlimit:4;stroke-dasharray:none"
       d="M 70.114582,152.13541 83.343749,138.90625"
       id="path3053" />
    <path
       style="fill:none;stroke:#00ff00;stroke-width:0.478917;stroke-linecap:butt;stroke-linejoin:miter;stroke-miterlimit:4;stroke-dasharray:none;stroke-opacity:1;marker-start:url(#marker5756)"
       d="m 78.052083,144.19792 c -1.32291,1.3229 1.32292,-1.3229 -1.32291,1.3229 -2.64584,2.64585 -2.64584,2.64585 -2.64584,2.64585"
       id="path3565-6-76-6"
       inkscape:transform-center-x="28.303872"
       inkscape:transform-center-y="-16.900243" />
    <path
       style="fill:none;stroke:#000000;stroke-width:0.2;stroke-linecap:butt;stroke-linejoin:miter;stroke-miterlimit:4;stroke-dasharray:none;stroke-opacity:1"
       d="M 96.572921,152.13541 109.80208,138.90625"
       id="path3053-3" />
    <path
       style="fill:none;stroke:#000000;stroke-width:0.2;stroke-linecap:butt;stroke-linejoin:miter;stroke-miterlimit:4;stroke-dasharray:none;stroke-opacity:1"
       d="M 96.572917,178.59375 109.80208,165.36459"
       id="path3053-2" />
    <path
       style="fill:none;stroke:#00ff00;stroke-width:0.478917;stroke-linecap:butt;stroke-linejoin:miter;stroke-miterlimit:4;stroke-dasharray:none;stroke-opacity:1;marker-start:url(#Arrow1Sstart)"
       d="m 105.83333,169.33333 c -1.32291,1.3229 1.32292,-1.3229 -1.32291,1.3229 -2.64584,2.64585 -2.64584,2.64585 -2.64584,2.64585"
       id="path3565-6-76-63"
       inkscape:transform-center-x="28.303872"
       inkscape:transform-center-y="-16.900243" />
    <path
       style="fill:none;stroke:#000000;stroke-width:0.2;stroke-linecap:butt;stroke-linejoin:miter;stroke-miterlimit:4;stroke-dasharray:0.4,0.2;stroke-opacity:1;stroke-dashoffset:0"
       d="M 70.114583,178.59375 83.343746,165.36459"
       id="path3053-2-2" />
    <path
       style="fill:none;stroke:#000000;stroke-width:0.2;stroke-linecap:butt;stroke-linejoin:miter;stroke-opacity:1;stroke-miterlimit:4;stroke-dasharray:none"
       d="m 83.343749,138.90625 h 26.458331 v 26.45833 0"
       id="path3234" />
    <path
       style="fill:none;stroke:#00ff00;stroke-width:0.479;stroke-linecap:butt;stroke-linejoin:miter;stroke-miterlimit:4;stroke-dasharray:none;stroke-opacity:1;marker-start:url(#Arrow2Sstart)"
       d="m 96.572917,138.90625 h -5.027084 v 0"
       id="path5219-7" />
    <path
       style="fill:none;stroke:#00ff00;stroke-width:0.479;stroke-linecap:butt;stroke-linejoin:miter;stroke-miterlimit:4;stroke-dasharray:none;stroke-opacity:1;marker-end:url(#Arrow1Send-1-5)"
       d="m 109.80208,156.10417 c 0,-1.76389 0,1.76388 0,-1.76389 0,-3.52778 0,-3.52778 0,-3.52778"
       id="path3565-6-78" />
    <path
       style="fill:none;stroke:#000000;stroke-width:0.2;stroke-linecap:butt;stroke-linejoin:miter;stroke-opacity:1;stroke-miterlimit:4;stroke-dasharray:0.4,0.2;stroke-dashoffset:0"
       d="m 83.343749,138.90625 v 26.45833 0"
       id="path3349" />
    <path
       style="fill:none;stroke:#000000;stroke-width:0.2;stroke-linecap:butt;stroke-linejoin:miter;stroke-opacity:1;stroke-miterlimit:4;stroke-dasharray:0.4,0.2;stroke-dashoffset:0"
       d="M 83.343749,165.36458 H 109.80208"
       id="path3497" />
    <path
       style="fill:none;stroke:#00ff00;stroke-width:0.4;stroke-linecap:butt;stroke-linejoin:miter;stroke-miterlimit:4;stroke-dasharray:none;stroke-opacity:1;marker-end:url(#Arrow1Send-1)"
       d="m 96.572917,162.00461 c 0,1.76389 0,-1.76388 0,1.76389 0,3.52778 0,3.52778 0,3.52778"
       id="path3565-6" />
    <path
       style="fill:none;stroke:#00ff00;stroke-width:0.478917;stroke-linecap:butt;stroke-linejoin:miter;stroke-miterlimit:4;stroke-dasharray:none;stroke-opacity:1;marker-end:url(#Arrow1Send-1-3)"
       d="m 104.51042,144.19792 c -1.32291,1.3229 1.32292,-1.3229 -1.32291,1.3229 -2.64584,2.64585 -2.64584,2.64585 -2.64584,2.64585"
       id="path3565-6-76"
       inkscape:transform-center-x="28.303872"
       inkscape:transform-center-y="-16.900243" />
    <path
       style="fill:none;stroke:#00ff00;stroke-width:0.479;stroke-linecap:butt;stroke-linejoin:miter;stroke-opacity:1;stroke-miterlimit:4;stroke-dasharray:none;marker-end:url(#Arrow1Sstart)"
       d="m 85.989583,152.13542 h -5.027084 v 0"
       id="path5219" />
    <path
       style="fill:none;stroke:#ff0000;stroke-width:0.479;stroke-linecap:butt;stroke-linejoin:miter;stroke-miterlimit:4;stroke-dasharray:none;stroke-opacity:1;marker-end:url(#Arrow1Send-1-5-6)"
       d="m 89.958333,149.48958 c 0,-1.76389 0,1.76388 0,-1.76389 0,-3.52778 0,-3.52778 0,-3.52778"
       id="path3565-6-78-6" />
    <path
       style="fill:none;stroke:#ff0000;stroke-width:0.478917;stroke-linecap:butt;stroke-linejoin:miter;stroke-miterlimit:4;stroke-dasharray:none;stroke-opacity:1;marker-end:url(#Arrow1Send-1-3-7)"
       d="m 85.989583,162.71875 c -1.32291,1.3229 1.32292,-1.3229 -1.32291,1.3229 -2.64584,2.64585 -2.64584,2.64585 -2.64584,2.64585"
       id="path3565-6-76-64"
       inkscape:transform-center-x="28.303872"
       inkscape:transform-center-y="-16.900243" />
    <path
       style="fill:none;stroke:#ff0000;stroke-width:0.479;stroke-linecap:butt;stroke-linejoin:miter;stroke-miterlimit:4;stroke-dasharray:none;stroke-opacity:1;marker-start:url(#marker5938-9)"
       d="m 105.83333,158.75 h -5.02708 v 0"
       id="path5219-2-5" />
    <path
       style="fill:none;stroke:#000000;stroke-width:0.2;stroke-linecap:butt;stroke-linejoin:miter;stroke-opacity:1;stroke-miterlimit:4;stroke-dasharray:none;marker-end:url(#marker5718)"
       d="m 83.343749,138.90625 c 0,-2.64584 0,-6.61459 0,-6.61459"
       id="path8133" />
    <path
       style="fill:none;stroke:#000000;stroke-width:0.2;stroke-linecap:butt;stroke-linejoin:miter;stroke-opacity:1;stroke-miterlimit:4;stroke-dasharray:none;marker-end:url(#marker5718)"
       d="m 109.80208,165.36458 c 6.61459,0 6.61459,0 6.61459,0"
       id="path8135" />
    <path
       style="fill:none;stroke:#000000;stroke-width:0.264583px;stroke-linecap:butt;stroke-linejoin:miter;stroke-opacity:1;marker-end:url(#marker5718)"
       d="m 70.114582,178.59375 c -5.291666,5.29166 -5.291666,5.29166 -5.291666,5.29166"
       id="path8137" />
    <g
       inkscape:label=""
       transform="translate(84.214323,152.75123)"
       id="g4321">
      <g
         fill="#000000"
         fill-opacity="1"
         id="g18"
         transform="matrix(0.352778,0,0,0.352778,-0.20395,-0.00471842)">
        <g
           id="use16"
           transform="translate(0,3.404)">
          <path
             d="M 4.59375,-1.1875 C 4.609375,-1.203125 4.625,-1.25 4.625,-1.265625 c 0,-0.03125 -0.015625,-0.09375 -0.09375,-0.09375 -0.078125,0 -0.078125,0.015625 -0.140625,0.140625 -0.359375,0.765625 -0.640625,1 -1.53125,1 h -1 c -0.046875,0 -0.109375,0 -0.15625,-0.015625 0,-0.046875 0,-0.046875 0.015625,-0.09375 l 0.328125,-1.3125 H 2.6875 c 0.484375,0 0.5,0.078125 0.5,0.234375 0,0.046875 0,0.09375 -0.03125,0.21875 0,0.015625 0,0.03125 0,0.046875 0,0 0,0.078125 0.09375,0.078125 0.078125,0 0.09375,-0.03125 0.109375,-0.109375 l 0.296875,-1.125 c 0,-0.015625 0,-0.046875 0,-0.078125 0,-0.015625 -0.015625,-0.078125 -0.09375,-0.078125 -0.09375,0 -0.09375,0.03125 -0.125,0.109375 C 3.328125,-1.9375 3.171875,-1.875 2.703125,-1.875 H 2.09375 L 2.375,-3 c 0.046875,-0.15625 0.046875,-0.15625 0.25,-0.15625 h 0.96875 c 0.71875,0 0.921875,0.109375 0.921875,0.640625 0,0.0625 -0.015625,0.15625 -0.015625,0.234375 0,0.0625 0.046875,0.09375 0.109375,0.09375 0.09375,0 0.09375,-0.046875 0.109375,-0.140625 L 4.796875,-3.21875 4.8125,-3.296875 c 0,-0.09375 -0.078125,-0.09375 -0.171875,-0.09375 h -3.09375 c -0.09375,0 -0.171875,0 -0.171875,0.140625 0,0.09375 0.0625,0.09375 0.1875,0.09375 0.046875,0 0.21875,0 0.3125,0.03125 0,0.046875 0,0.0625 -0.015625,0.125 L 1.21875,-0.40625 c -0.046875,0.140625 -0.046875,0.1875 -0.4375,0.1875 -0.125,0 -0.203125,0 -0.203125,0.140625 C 0.578125,0 0.65625,0 0.75,0 h 3.171875 c 0.125,0 0.125,0 0.171875,-0.09375 z m 0,0"
             id="path30" />
        </g>
      </g>
      <g
         clip-path="url(#clipPath174)"
         id="g24"
         transform="matrix(0.352778,0,0,0.352778,-0.20395,-0.00471842)">
        <g
           fill="#000000"
           fill-opacity="1"
           id="g22">
          <g
             id="use20"
             transform="translate(5.0159998,4.4000001)">
            <path
               d="M 3.296875,-1.859375 C 3.3125,-1.9375 3.3125,-1.96875 3.3125,-1.96875 c 0,-0.109375 -0.078125,-0.171875 -0.171875,-0.171875 -0.203125,0 -0.25,0.171875 -0.28125,0.296875 L 2.75,-1.421875 l -0.140625,0.625 c -0.03125,0.0625 -0.046875,0.15625 -0.0625,0.1875 0,0.03125 -0.265625,0.5 -0.6875,0.5 -0.234375,0 -0.40625,-0.109375 -0.40625,-0.4375 0,-0.265625 0.140625,-0.640625 0.28125,-1 0.03125,-0.046875 0.0625,-0.140625 0.0625,-0.21875 0,-0.25 -0.234375,-0.4375 -0.546875,-0.4375 -0.515625,0 -0.796875,0.640625 -0.796875,0.765625 0,0.078125 0.078125,0.078125 0.109375,0.078125 0.078125,0 0.078125,-0.03125 0.109375,-0.09375 0.109375,-0.34375 0.34375,-0.578125 0.5625,-0.578125 0.09375,0 0.15625,0.046875 0.15625,0.1875 0,0.09375 -0.03125,0.171875 -0.0625,0.265625 -0.25,0.59375 -0.296875,0.765625 -0.296875,0.96875 0,0.546875 0.46875,0.671875 0.796875,0.671875 0.28125,0 0.5,-0.140625 0.625,-0.25 -0.078125,0.28125 -0.125,0.5 -0.359375,0.734375 -0.125,0.109375 -0.359375,0.3125 -0.65625,0.3125 -0.09375,0 -0.28125,-0.015625 -0.390625,-0.125 0.21875,-0.0625 0.25,-0.25 0.25,-0.296875 0,-0.140625 -0.125,-0.203125 -0.21875,-0.203125 -0.15625,0 -0.328125,0.109375 -0.328125,0.34375 0,0.25 0.265625,0.4375 0.6875,0.4375 C 2,1.015625 2.671875,0.640625 2.828125,0 Z m 0,0"
               id="path34" />
          </g>
        </g>
      </g>
    </g>
    <g
       inkscape:label=""
       transform="translate(102.27687,146.865)"
       id="g5954">
      <g
         fill="#000000"
         fill-opacity="1"
         id="g5944"
         transform="matrix(0.352778,0,0,0.352778,-0.20395,-0.00471842)">
        <g
           id="g5942"
           transform="translate(0,3.404)">
          <path
             d="M 4.59375,-1.1875 C 4.609375,-1.203125 4.625,-1.25 4.625,-1.265625 c 0,-0.03125 -0.015625,-0.09375 -0.09375,-0.09375 -0.078125,0 -0.078125,0.015625 -0.140625,0.140625 -0.359375,0.765625 -0.640625,1 -1.53125,1 h -1 c -0.046875,0 -0.109375,0 -0.15625,-0.015625 0,-0.046875 0,-0.046875 0.015625,-0.09375 l 0.328125,-1.3125 H 2.6875 c 0.484375,0 0.5,0.078125 0.5,0.234375 0,0.046875 0,0.09375 -0.03125,0.21875 0,0.015625 0,0.03125 0,0.046875 0,0 0,0.078125 0.09375,0.078125 0.078125,0 0.09375,-0.03125 0.109375,-0.109375 l 0.296875,-1.125 c 0,-0.015625 0,-0.046875 0,-0.078125 0,-0.015625 -0.015625,-0.078125 -0.09375,-0.078125 -0.09375,0 -0.09375,0.03125 -0.125,0.109375 C 3.328125,-1.9375 3.171875,-1.875 2.703125,-1.875 H 2.09375 L 2.375,-3 c 0.046875,-0.15625 0.046875,-0.15625 0.25,-0.15625 h 0.96875 c 0.71875,0 0.921875,0.109375 0.921875,0.640625 0,0.0625 -0.015625,0.15625 -0.015625,0.234375 0,0.0625 0.046875,0.09375 0.109375,0.09375 0.09375,0 0.09375,-0.046875 0.109375,-0.140625 L 4.796875,-3.21875 4.8125,-3.296875 c 0,-0.09375 -0.078125,-0.09375 -0.171875,-0.09375 h -3.09375 c -0.09375,0 -0.171875,0 -0.171875,0.140625 0,0.09375 0.0625,0.09375 0.1875,0.09375 0.046875,0 0.21875,0 0.3125,0.03125 0,0.046875 0,0.0625 -0.015625,0.125 L 1.21875,-0.40625 c -0.046875,0.140625 -0.046875,0.1875 -0.4375,0.1875 -0.125,0 -0.203125,0 -0.203125,0.140625 C 0.578125,0 0.65625,0 0.75,0 h 3.171875 c 0.125,0 0.125,0 0.171875,-0.09375 z m 0,0"
             id="path5940" />
        </g>
      </g>
      <g
         clip-path="url(#clipPath3193)"
         id="g5952"
         transform="matrix(0.352778,0,0,0.352778,-0.20395,-0.00471842)">
        <g
           fill="#000000"
           fill-opacity="1"
           id="g5950">
          <g
             id="g5948"
             transform="translate(5.0159998,4.4000001)">
            <path
               d="m 3.09375,-1.953125 c -0.234375,0.0625 -0.234375,0.28125 -0.234375,0.296875 0,0.078125 0.0625,0.203125 0.234375,0.203125 0.140625,0 0.3125,-0.125 0.3125,-0.34375 0,-0.296875 -0.328125,-0.40625 -0.59375,-0.40625 -0.328125,0 -0.546875,0.203125 -0.640625,0.34375 -0.15625,-0.28125 -0.484375,-0.34375 -0.65625,-0.34375 -0.625,0 -0.984375,0.59375 -0.984375,0.765625 0,0.078125 0.078125,0.078125 0.109375,0.078125 0.046875,0 0.078125,0 0.109375,-0.0625 0.140625,-0.484375 0.546875,-0.609375 0.734375,-0.609375 0.171875,0 0.359375,0.0625 0.359375,0.328125 0,0.125 -0.09375,0.46875 -0.265625,1.140625 -0.0625,0.28125 -0.296875,0.453125 -0.515625,0.453125 -0.03125,0 -0.171875,0 -0.296875,-0.078125 0.21875,-0.09375 0.21875,-0.28125 0.21875,-0.296875 0,-0.140625 -0.109375,-0.203125 -0.21875,-0.203125 -0.125,0 -0.296875,0.09375 -0.296875,0.328125 0,0.3125 0.328125,0.421875 0.59375,0.421875 0.265625,0 0.5,-0.171875 0.609375,-0.34375 C 1.875,0.015625 2.1875,0.0625 2.34375,0.0625 c 0.625,0 0.984375,-0.59375 0.984375,-0.78125 0,-0.0625 -0.078125,-0.0625 -0.109375,-0.0625 -0.078125,0 -0.09375,0.03125 -0.109375,0.0625 C 2.96875,-0.265625 2.59375,-0.109375 2.375,-0.109375 c -0.15625,0 -0.359375,-0.0625 -0.359375,-0.34375 0,-0.0625 0,-0.09375 0.03125,-0.265625 0.09375,-0.34375 0.21875,-0.890625 0.265625,-0.984375 0.0625,-0.125 0.234375,-0.328125 0.484375,-0.328125 0.015625,0 0.1875,0 0.296875,0.078125 z m 0,0"
               id="path5946" />
          </g>
        </g>
      </g>
    </g>
    <g
       inkscape:label=""
       transform="translate(97.242672,163.57826)"
       id="g7553">
      <g
         fill="#000000"
         fill-opacity="1"
         id="g7543"
         transform="matrix(0.352778,0,0,0.352778,-0.20395,-0.00471842)">
        <g
           id="g7541"
           transform="translate(0,3.404)">
          <path
             d="M 4.59375,-1.1875 C 4.609375,-1.203125 4.625,-1.25 4.625,-1.265625 c 0,-0.03125 -0.015625,-0.09375 -0.09375,-0.09375 -0.078125,0 -0.078125,0.015625 -0.140625,0.140625 -0.359375,0.765625 -0.640625,1 -1.53125,1 h -1 c -0.046875,0 -0.109375,0 -0.15625,-0.015625 0,-0.046875 0,-0.046875 0.015625,-0.09375 l 0.328125,-1.3125 H 2.6875 c 0.484375,0 0.5,0.078125 0.5,0.234375 0,0.046875 0,0.09375 -0.03125,0.21875 0,0.015625 0,0.03125 0,0.046875 0,0 0,0.078125 0.09375,0.078125 0.078125,0 0.09375,-0.03125 0.109375,-0.109375 l 0.296875,-1.125 c 0,-0.015625 0,-0.046875 0,-0.078125 0,-0.015625 -0.015625,-0.078125 -0.09375,-0.078125 -0.09375,0 -0.09375,0.03125 -0.125,0.109375 C 3.328125,-1.9375 3.171875,-1.875 2.703125,-1.875 H 2.09375 L 2.375,-3 c 0.046875,-0.15625 0.046875,-0.15625 0.25,-0.15625 h 0.96875 c 0.71875,0 0.921875,0.109375 0.921875,0.640625 0,0.0625 -0.015625,0.15625 -0.015625,0.234375 0,0.0625 0.046875,0.09375 0.109375,0.09375 0.09375,0 0.09375,-0.046875 0.109375,-0.140625 L 4.796875,-3.21875 4.8125,-3.296875 c 0,-0.09375 -0.078125,-0.09375 -0.171875,-0.09375 h -3.09375 c -0.09375,0 -0.171875,0 -0.171875,0.140625 0,0.09375 0.0625,0.09375 0.1875,0.09375 0.046875,0 0.21875,0 0.3125,0.03125 0,0.046875 0,0.0625 -0.015625,0.125 L 1.21875,-0.40625 c -0.046875,0.140625 -0.046875,0.1875 -0.4375,0.1875 -0.125,0 -0.203125,0 -0.203125,0.140625 C 0.578125,0 0.65625,0 0.75,0 h 3.171875 c 0.125,0 0.125,0 0.171875,-0.09375 z m 0,0"
             id="path7539" />
        </g>
      </g>
      <g
         clip-path="url(#clipPath9268)"
         id="g7551"
         transform="matrix(0.352778,0,0,0.352778,-0.20395,-0.00471842)">
        <g
           fill="#000000"
           fill-opacity="1"
           id="g7549">
          <g
             id="g7547"
             transform="translate(5.0159998,4.4000001)">
            <path
               d="M 1.140625,-0.453125 C 1.34375,-0.640625 1.59375,-0.828125 1.875,-1.03125 2.21875,-1.265625 2.421875,-1.4375 2.640625,-1.625 c 0.25,-0.234375 0.421875,-0.453125 0.421875,-0.515625 0,-0.0625 -0.078125,-0.0625 -0.109375,-0.0625 -0.078125,0 -0.078125,0 -0.109375,0.0625 -0.203125,0.265625 -0.3125,0.28125 -0.390625,0.28125 -0.078125,0 -0.15625,-0.015625 -0.3125,-0.125 -0.171875,-0.140625 -0.28125,-0.21875 -0.46875,-0.21875 -0.453125,0 -0.75,0.4375 -0.75,0.59375 0,0.078125 0.0625,0.078125 0.109375,0.078125 0.046875,0 0.078125,-0.015625 0.09375,-0.0625 0.03125,-0.0625 0.078125,-0.1875 0.46875,-0.1875 0.140625,0 0.25,0.015625 0.515625,0.0625 0.171875,0.03125 0.234375,0.03125 0.328125,0.03125 -0.15625,0.125 -0.296875,0.25 -0.671875,0.53125 -0.359375,0.25 -0.578125,0.40625 -0.8125,0.625 -0.203125,0.171875 -0.4375,0.453125 -0.4375,0.515625 0,0.078125 0.078125,0.078125 0.109375,0.078125 0.0625,0 0.078125,-0.015625 0.109375,-0.046875 0.140625,-0.203125 0.328125,-0.3125 0.5,-0.3125 0.140625,0 0.203125,0.0625 0.390625,0.203125 C 1.765625,0 1.875,0.0625 2.015625,0.0625 c 0.59375,0 0.96875,-0.59375 0.96875,-0.796875 C 2.984375,-0.8125 2.90625,-0.8125 2.875,-0.8125 c -0.078125,0 -0.078125,0.03125 -0.109375,0.078125 -0.109375,0.3125 -0.5,0.359375 -0.6875,0.359375 C 1.96875,-0.375 1.84375,-0.390625 1.6875,-0.40625 1.421875,-0.453125 1.328125,-0.453125 1.265625,-0.453125 c -0.078125,0 -0.09375,0 -0.125,0 z m 0,0"
               id="path7545" />
          </g>
        </g>
      </g>
    </g>
    <g
       inkscape:label=""
       transform="translate(83.637514,166.06727)"
       id="g10921">
      <g
         fill="#000000"
         fill-opacity="1"
         id="g10911"
         transform="matrix(0.352778,0,0,0.352778,-0.20395,7.93736e-4)">
        <g
           id="g10909"
           transform="translate(0,3.404)">
          <path
             d="M 4.796875,-2.984375 C 4.828125,-3.140625 4.84375,-3.1875 5.21875,-3.1875 c 0.140625,0 0.140625,0 0.171875,0 0.015625,-0.03125 0.03125,-0.09375 0.03125,-0.125 0,-0.015625 0,-0.09375 -0.078125,-0.09375 -0.109375,0 -0.234375,0.015625 -0.34375,0.015625 -0.109375,0 -0.234375,0 -0.359375,0 -0.125,0 -0.25,0 -0.375,0 -0.109375,0 -0.234375,-0.015625 -0.34375,-0.015625 -0.03125,0 -0.125,0 -0.125,0.140625 0,0.078125 0.0625,0.078125 0.1875,0.078125 0.046875,0 0.21875,0 0.3125,0.03125 0,0.0625 0,0.078125 -0.015625,0.125 L 4,-1.890625 H 2.109375 L 2.375,-2.984375 C 2.421875,-3.140625 2.421875,-3.1875 2.8125,-3.1875 c 0.125,0 0.140625,0 0.15625,0 C 3,-3.21875 3.015625,-3.28125 3.015625,-3.3125 3.015625,-3.328125 3,-3.40625 2.921875,-3.40625 c -0.109375,0 -0.21875,0.015625 -0.328125,0.015625 -0.125,0 -0.25,0 -0.375,0 -0.125,0 -0.234375,0 -0.359375,0 -0.125,0 -0.25,-0.015625 -0.359375,-0.015625 -0.03125,0 -0.125,0 -0.125,0.140625 0,0.078125 0.0625,0.078125 0.1875,0.078125 0.046875,0 0.21875,0 0.328125,0.03125 0,0.0625 0,0.078125 -0.015625,0.125 l -0.65625,2.625 c -0.046875,0.140625 -0.046875,0.1875 -0.4375,0.1875 -0.125,0 -0.203125,0 -0.203125,0.140625 C 0.578125,-0.046875 0.625,0 0.671875,0 0.78125,0 0.890625,-0.015625 1,-0.015625 c 0.125,0 0.25,0 0.375,0 0.125,0 0.25,0 0.375,0 C 1.859375,-0.015625 1.984375,0 2.09375,0 c 0.03125,0 0.125,0 0.125,-0.140625 0,-0.078125 -0.078125,-0.078125 -0.171875,-0.078125 0,0 -0.125,0 -0.203125,-0.015625 C 1.71875,-0.25 1.703125,-0.25 1.703125,-0.296875 c 0,0 0,-0.015625 0.015625,-0.0625 L 2.046875,-1.65625 h 1.90625 l -0.3125,1.25 c -0.046875,0.140625 -0.0625,0.1875 -0.4375,0.1875 -0.125,0 -0.203125,0 -0.203125,0.140625 C 3,-0.046875 3.03125,0 3.09375,0 3.1875,0 3.3125,-0.015625 3.421875,-0.015625 c 0.125,0 0.25,0 0.375,0 0.125,0 0.234375,0 0.359375,0 0.125,0 0.25,0.015625 0.359375,0.015625 0.03125,0 0.125,0 0.125,-0.140625 0,-0.078125 -0.078125,-0.078125 -0.171875,-0.078125 0,0 -0.125,0 -0.21875,-0.015625 C 4.125,-0.25 4.125,-0.25 4.125,-0.296875 c 0,0 0,-0.015625 0.015625,-0.0625 z m 0,0"
             id="path10907" />
        </g>
      </g>
      <g
         clip-path="url(#clipPath3812)"
         id="g10919"
         transform="matrix(0.352778,0,0,0.352778,-0.20395,7.93736e-4)">
        <g
           fill="#000000"
           fill-opacity="1"
           id="g10917">
          <g
             id="g10915"
             transform="translate(5.5310001,4.4000001)">
            <path
               d="m 3.09375,-1.953125 c -0.234375,0.0625 -0.234375,0.28125 -0.234375,0.296875 0,0.078125 0.0625,0.203125 0.234375,0.203125 0.140625,0 0.3125,-0.125 0.3125,-0.34375 0,-0.296875 -0.328125,-0.40625 -0.59375,-0.40625 -0.328125,0 -0.546875,0.203125 -0.640625,0.34375 -0.15625,-0.28125 -0.484375,-0.34375 -0.65625,-0.34375 -0.625,0 -0.984375,0.59375 -0.984375,0.765625 0,0.078125 0.078125,0.078125 0.109375,0.078125 0.046875,0 0.078125,0 0.109375,-0.0625 0.140625,-0.484375 0.546875,-0.609375 0.734375,-0.609375 0.171875,0 0.359375,0.0625 0.359375,0.328125 0,0.125 -0.09375,0.46875 -0.265625,1.140625 -0.0625,0.28125 -0.296875,0.453125 -0.515625,0.453125 -0.03125,0 -0.171875,0 -0.296875,-0.078125 0.21875,-0.09375 0.21875,-0.28125 0.21875,-0.296875 0,-0.140625 -0.109375,-0.203125 -0.21875,-0.203125 -0.125,0 -0.296875,0.09375 -0.296875,0.328125 0,0.3125 0.328125,0.421875 0.59375,0.421875 0.265625,0 0.5,-0.171875 0.609375,-0.34375 C 1.875,0.015625 2.1875,0.0625 2.34375,0.0625 c 0.625,0 0.984375,-0.59375 0.984375,-0.78125 0,-0.0625 -0.078125,-0.0625 -0.109375,-0.0625 -0.078125,0 -0.09375,0.03125 -0.109375,0.0625 C 2.96875,-0.265625 2.59375,-0.109375 2.375,-0.109375 c -0.15625,0 -0.359375,-0.0625 -0.359375,-0.34375 0,-0.0625 0,-0.09375 0.03125,-0.265625 0.09375,-0.34375 0.21875,-0.890625 0.265625,-0.984375 0.0625,-0.125 0.234375,-0.328125 0.484375,-0.328125 0.015625,0 0.1875,0 0.296875,0.078125 z m 0,0"
               id="path10913" />
          </g>
        </g>
      </g>
    </g>
    <g
       inkscape:label=""
       transform="translate(101.47047,156.37891)"
       id="g12702">
      <g
         fill="#000000"
         fill-opacity="1"
         id="g12692"
         transform="matrix(0.352778,0,0,0.352778,-0.20395,7.93736e-4)">
        <g
           id="g12690"
           transform="translate(0,3.404)">
          <path
             d="M 4.796875,-2.984375 C 4.828125,-3.140625 4.84375,-3.1875 5.21875,-3.1875 c 0.140625,0 0.140625,0 0.171875,0 0.015625,-0.03125 0.03125,-0.09375 0.03125,-0.125 0,-0.015625 0,-0.09375 -0.078125,-0.09375 -0.109375,0 -0.234375,0.015625 -0.34375,0.015625 -0.109375,0 -0.234375,0 -0.359375,0 -0.125,0 -0.25,0 -0.375,0 -0.109375,0 -0.234375,-0.015625 -0.34375,-0.015625 -0.03125,0 -0.125,0 -0.125,0.140625 0,0.078125 0.0625,0.078125 0.1875,0.078125 0.046875,0 0.21875,0 0.3125,0.03125 0,0.0625 0,0.078125 -0.015625,0.125 L 4,-1.890625 H 2.109375 L 2.375,-2.984375 C 2.421875,-3.140625 2.421875,-3.1875 2.8125,-3.1875 c 0.125,0 0.140625,0 0.15625,0 C 3,-3.21875 3.015625,-3.28125 3.015625,-3.3125 3.015625,-3.328125 3,-3.40625 2.921875,-3.40625 c -0.109375,0 -0.21875,0.015625 -0.328125,0.015625 -0.125,0 -0.25,0 -0.375,0 -0.125,0 -0.234375,0 -0.359375,0 -0.125,0 -0.25,-0.015625 -0.359375,-0.015625 -0.03125,0 -0.125,0 -0.125,0.140625 0,0.078125 0.0625,0.078125 0.1875,0.078125 0.046875,0 0.21875,0 0.328125,0.03125 0,0.0625 0,0.078125 -0.015625,0.125 l -0.65625,2.625 c -0.046875,0.140625 -0.046875,0.1875 -0.4375,0.1875 -0.125,0 -0.203125,0 -0.203125,0.140625 C 0.578125,-0.046875 0.625,0 0.671875,0 0.78125,0 0.890625,-0.015625 1,-0.015625 c 0.125,0 0.25,0 0.375,0 0.125,0 0.25,0 0.375,0 C 1.859375,-0.015625 1.984375,0 2.09375,0 c 0.03125,0 0.125,0 0.125,-0.140625 0,-0.078125 -0.078125,-0.078125 -0.171875,-0.078125 0,0 -0.125,0 -0.203125,-0.015625 C 1.71875,-0.25 1.703125,-0.25 1.703125,-0.296875 c 0,0 0,-0.015625 0.015625,-0.0625 L 2.046875,-1.65625 h 1.90625 l -0.3125,1.25 c -0.046875,0.140625 -0.0625,0.1875 -0.4375,0.1875 -0.125,0 -0.203125,0 -0.203125,0.140625 C 3,-0.046875 3.03125,0 3.09375,0 3.1875,0 3.3125,-0.015625 3.421875,-0.015625 c 0.125,0 0.25,0 0.375,0 0.125,0 0.234375,0 0.359375,0 0.125,0 0.25,0.015625 0.359375,0.015625 0.03125,0 0.125,0 0.125,-0.140625 0,-0.078125 -0.078125,-0.078125 -0.171875,-0.078125 0,0 -0.125,0 -0.21875,-0.015625 C 4.125,-0.25 4.125,-0.25 4.125,-0.296875 c 0,0 0,-0.015625 0.015625,-0.0625 z m 0,0"
             id="path12688" />
        </g>
      </g>
      <g
         clip-path="url(#clipPath377)"
         id="g12700"
         transform="matrix(0.352778,0,0,0.352778,-0.20395,7.93736e-4)">
        <g
           fill="#000000"
           fill-opacity="1"
           id="g12698">
          <g
             id="g12696"
             transform="translate(5.5310001,4.4000001)">
            <path
               d="M 3.296875,-1.859375 C 3.3125,-1.9375 3.3125,-1.96875 3.3125,-1.96875 c 0,-0.109375 -0.078125,-0.171875 -0.171875,-0.171875 -0.203125,0 -0.25,0.171875 -0.28125,0.296875 L 2.75,-1.421875 l -0.140625,0.625 c -0.03125,0.0625 -0.046875,0.15625 -0.0625,0.1875 0,0.03125 -0.265625,0.5 -0.6875,0.5 -0.234375,0 -0.40625,-0.109375 -0.40625,-0.4375 0,-0.265625 0.140625,-0.640625 0.28125,-1 0.03125,-0.046875 0.0625,-0.140625 0.0625,-0.21875 0,-0.25 -0.234375,-0.4375 -0.546875,-0.4375 -0.515625,0 -0.796875,0.640625 -0.796875,0.765625 0,0.078125 0.078125,0.078125 0.109375,0.078125 0.078125,0 0.078125,-0.03125 0.109375,-0.09375 0.109375,-0.34375 0.34375,-0.578125 0.5625,-0.578125 0.09375,0 0.15625,0.046875 0.15625,0.1875 0,0.09375 -0.03125,0.171875 -0.0625,0.265625 -0.25,0.59375 -0.296875,0.765625 -0.296875,0.96875 0,0.546875 0.46875,0.671875 0.796875,0.671875 0.28125,0 0.5,-0.140625 0.625,-0.25 -0.078125,0.28125 -0.125,0.5 -0.359375,0.734375 -0.125,0.109375 -0.359375,0.3125 -0.65625,0.3125 -0.09375,0 -0.28125,-0.015625 -0.390625,-0.125 0.21875,-0.0625 0.25,-0.25 0.25,-0.296875 0,-0.140625 -0.125,-0.203125 -0.21875,-0.203125 -0.15625,0 -0.328125,0.109375 -0.328125,0.34375 0,0.25 0.265625,0.4375 0.6875,0.4375 C 2,1.015625 2.671875,0.640625 2.828125,0 Z m 0,0"
               id="path12694" />
          </g>
        </g>
      </g>
    </g>
    <g
       inkscape:label=""
       transform="translate(90.283146,146.13415)"
       id="g14513">
      <g
         fill="#000000"
         fill-opacity="1"
         id="g14503"
         transform="matrix(0.352778,0,0,0.352778,-0.20395,7.93736e-4)">
        <g
           id="g14501"
           transform="translate(0,3.404)">
          <path
             d="M 4.796875,-2.984375 C 4.828125,-3.140625 4.84375,-3.1875 5.21875,-3.1875 c 0.140625,0 0.140625,0 0.171875,0 0.015625,-0.03125 0.03125,-0.09375 0.03125,-0.125 0,-0.015625 0,-0.09375 -0.078125,-0.09375 -0.109375,0 -0.234375,0.015625 -0.34375,0.015625 -0.109375,0 -0.234375,0 -0.359375,0 -0.125,0 -0.25,0 -0.375,0 -0.109375,0 -0.234375,-0.015625 -0.34375,-0.015625 -0.03125,0 -0.125,0 -0.125,0.140625 0,0.078125 0.0625,0.078125 0.1875,0.078125 0.046875,0 0.21875,0 0.3125,0.03125 0,0.0625 0,0.078125 -0.015625,0.125 L 4,-1.890625 H 2.109375 L 2.375,-2.984375 C 2.421875,-3.140625 2.421875,-3.1875 2.8125,-3.1875 c 0.125,0 0.140625,0 0.15625,0 C 3,-3.21875 3.015625,-3.28125 3.015625,-3.3125 3.015625,-3.328125 3,-3.40625 2.921875,-3.40625 c -0.109375,0 -0.21875,0.015625 -0.328125,0.015625 -0.125,0 -0.25,0 -0.375,0 -0.125,0 -0.234375,0 -0.359375,0 -0.125,0 -0.25,-0.015625 -0.359375,-0.015625 -0.03125,0 -0.125,0 -0.125,0.140625 0,0.078125 0.0625,0.078125 0.1875,0.078125 0.046875,0 0.21875,0 0.328125,0.03125 0,0.0625 0,0.078125 -0.015625,0.125 l -0.65625,2.625 c -0.046875,0.140625 -0.046875,0.1875 -0.4375,0.1875 -0.125,0 -0.203125,0 -0.203125,0.140625 C 0.578125,-0.046875 0.625,0 0.671875,0 0.78125,0 0.890625,-0.015625 1,-0.015625 c 0.125,0 0.25,0 0.375,0 0.125,0 0.25,0 0.375,0 C 1.859375,-0.015625 1.984375,0 2.09375,0 c 0.03125,0 0.125,0 0.125,-0.140625 0,-0.078125 -0.078125,-0.078125 -0.171875,-0.078125 0,0 -0.125,0 -0.203125,-0.015625 C 1.71875,-0.25 1.703125,-0.25 1.703125,-0.296875 c 0,0 0,-0.015625 0.015625,-0.0625 L 2.046875,-1.65625 h 1.90625 l -0.3125,1.25 c -0.046875,0.140625 -0.0625,0.1875 -0.4375,0.1875 -0.125,0 -0.203125,0 -0.203125,0.140625 C 3,-0.046875 3.03125,0 3.09375,0 3.1875,0 3.3125,-0.015625 3.421875,-0.015625 c 0.125,0 0.25,0 0.375,0 0.125,0 0.234375,0 0.359375,0 0.125,0 0.25,0.015625 0.359375,0.015625 0.03125,0 0.125,0 0.125,-0.140625 0,-0.078125 -0.078125,-0.078125 -0.171875,-0.078125 0,0 -0.125,0 -0.21875,-0.015625 C 4.125,-0.25 4.125,-0.25 4.125,-0.296875 c 0,0 0,-0.015625 0.015625,-0.0625 z m 0,0"
             id="path14499" />
        </g>
      </g>
      <g
         clip-path="url(#clipPath4537)"
         id="g14511"
         transform="matrix(0.352778,0,0,0.352778,-0.20395,7.93736e-4)">
        <g
           fill="#000000"
           fill-opacity="1"
           id="g14509">
          <g
             id="g14507"
             transform="translate(5.5310001,4.4000001)">
            <path
               d="M 1.140625,-0.453125 C 1.34375,-0.640625 1.59375,-0.828125 1.875,-1.03125 2.21875,-1.265625 2.421875,-1.4375 2.640625,-1.625 c 0.25,-0.234375 0.421875,-0.453125 0.421875,-0.515625 0,-0.0625 -0.078125,-0.0625 -0.109375,-0.0625 -0.078125,0 -0.078125,0 -0.109375,0.0625 -0.203125,0.265625 -0.3125,0.28125 -0.390625,0.28125 -0.078125,0 -0.15625,-0.015625 -0.3125,-0.125 -0.171875,-0.140625 -0.28125,-0.21875 -0.46875,-0.21875 -0.453125,0 -0.75,0.4375 -0.75,0.59375 0,0.078125 0.0625,0.078125 0.109375,0.078125 0.046875,0 0.078125,-0.015625 0.09375,-0.0625 0.03125,-0.0625 0.078125,-0.1875 0.46875,-0.1875 0.140625,0 0.25,0.015625 0.515625,0.0625 0.171875,0.03125 0.234375,0.03125 0.328125,0.03125 -0.15625,0.125 -0.296875,0.25 -0.671875,0.53125 -0.359375,0.25 -0.578125,0.40625 -0.8125,0.625 -0.203125,0.171875 -0.4375,0.453125 -0.4375,0.515625 0,0.078125 0.078125,0.078125 0.109375,0.078125 0.0625,0 0.078125,-0.015625 0.109375,-0.046875 0.140625,-0.203125 0.328125,-0.3125 0.5,-0.3125 0.140625,0 0.203125,0.0625 0.390625,0.203125 C 1.765625,0 1.875,0.0625 2.015625,0.0625 c 0.59375,0 0.96875,-0.59375 0.96875,-0.796875 C 2.984375,-0.8125 2.90625,-0.8125 2.875,-0.8125 c -0.078125,0 -0.078125,0.03125 -0.109375,0.078125 -0.109375,0.3125 -0.5,0.359375 -0.6875,0.359375 C 1.96875,-0.375 1.84375,-0.390625 1.6875,-0.40625 1.421875,-0.453125 1.328125,-0.453125 1.265625,-0.453125 c -0.078125,0 -0.09375,0 -0.125,0 z m 0,0"
               id="path14505" />
          </g>
        </g>
      </g>
    </g>
    <g
       inkscape:label=""
       transform="translate(107.58774,166.63554)"
       id="g16382">
      <g
         clip-path="url(#clipPath7480)"
         id="g54"
         transform="matrix(0.352778,0,0,0.352778,-0.264583,-5.73285e-4)">
        <g
           fill="#000000"
           fill-opacity="1"
           id="g52">
          <g
             id="use50"
             transform="translate(0,3.7360001)">
            <path
               d="m 2.203125,-3.625 c 0,0 0.015625,-0.015625 0.015625,-0.046875 0,-0.015625 -0.015625,-0.0625 -0.09375,-0.0625 -0.09375,0 -1.375,0.796875 -1.375,2.484375 0,1.6875 1.28125,2.5 1.375,2.5 0.078125,0 0.09375,-0.046875 0.09375,-0.078125 C 2.21875,1.140625 2.1875,1.125 2.171875,1.109375 1.296875,0.40625 1.125,-0.609375 1.125,-1.25 c 0,-1.21875 0.5625,-2.015625 1.078125,-2.375 z m 0,0"
               id="path100" />
          </g>
        </g>
      </g>
      <g
         clip-path="url(#clipPath1055)"
         id="g62"
         transform="matrix(0.352778,0,0,0.352778,-0.264583,-5.73285e-4)">
        <g
           fill="#000000"
           fill-opacity="1"
           id="g60">
          <g
             id="use56"
             transform="translate(2.698,3.7360001)">
            <path
               d="m 1.96875,-3.109375 c 0,-0.125 -0.078125,-0.21875 -0.21875,-0.21875 -0.140625,0 -0.296875,0.140625 -0.296875,0.296875 0,0.140625 0.109375,0.21875 0.21875,0.21875 0.15625,0 0.296875,-0.140625 0.296875,-0.296875 z m 0.234375,2.390625 c 0,-0.0625 -0.078125,-0.0625 -0.09375,-0.0625 -0.09375,0 -0.09375,0.015625 -0.125,0.109375 -0.078125,0.265625 -0.3125,0.5625 -0.5625,0.5625 -0.109375,0 -0.140625,-0.078125 -0.140625,-0.1875 0,-0.109375 0.015625,-0.171875 0.0625,-0.265625 0.03125,-0.09375 0.078125,-0.1875 0.109375,-0.265625 0.015625,-0.046875 0.203125,-0.5 0.28125,-0.6875 0.03125,-0.09375 0.0625,-0.171875 0.0625,-0.25 0,-0.234375 -0.234375,-0.4375 -0.546875,-0.4375 -0.515625,0 -0.796875,0.640625 -0.796875,0.765625 0,0.078125 0.078125,0.078125 0.109375,0.078125 0.078125,0 0.078125,-0.03125 0.109375,-0.09375 0.109375,-0.359375 0.34375,-0.578125 0.5625,-0.578125 0.09375,0 0.15625,0.046875 0.15625,0.1875 0,0.015625 0,0.078125 -0.03125,0.171875 -0.03125,0.09375 -0.265625,0.625 -0.328125,0.796875 -0.046875,0.09375 -0.046875,0.09375 -0.109375,0.265625 -0.03125,0.078125 -0.0625,0.140625 -0.0625,0.21875 0,0.265625 0.25,0.453125 0.546875,0.453125 0.515625,0 0.796875,-0.65625 0.796875,-0.78125 z m 0,0"
               id="path104" />
          </g>
          <g
             id="use58"
             transform="translate(5.3560219,3.7360001)">
            <path
               d="m 1.34375,-0.0625 c 0,0.46875 -0.25,0.75 -0.390625,0.859375 -0.046875,0.03125 -0.0625,0.046875 -0.0625,0.078125 0,0.03125 0.046875,0.09375 0.09375,0.09375 0.0625,0 0.53125,-0.390625 0.53125,-1.015625 0,-0.34375 -0.15625,-0.5625 -0.375,-0.5625 -0.1875,0 -0.296875,0.15625 -0.296875,0.3125 C 0.84375,-0.140625 0.953125,0 1.140625,0 1.21875,0 1.296875,-0.015625 1.34375,-0.0625 Z m 0,0"
               id="path108" />
          </g>
        </g>
      </g>
      <g
         clip-path="url(#clipPath537)"
         id="g68"
         transform="matrix(0.352778,0,0,0.352778,-0.264583,-5.73285e-4)">
        <g
           fill="#000000"
           fill-opacity="1"
           id="g66">
          <g
             id="use64"
             transform="translate(8.8593702,3.7360001)">
            <path
               d="m 2.546875,-3.109375 c 0,-0.109375 -0.09375,-0.21875 -0.21875,-0.21875 -0.15625,0 -0.3125,0.15625 -0.3125,0.296875 0,0.125 0.09375,0.21875 0.21875,0.21875 0.171875,0 0.3125,-0.15625 0.3125,-0.296875 z M 1.453125,0.21875 C 1.359375,0.609375 1.046875,0.859375 0.75,0.859375 0.65625,0.859375 0.609375,0.84375 0.5625,0.828125 0.6875,0.75 0.71875,0.625 0.71875,0.5625 0.71875,0.484375 0.65625,0.359375 0.5,0.359375 c -0.171875,0 -0.3125,0.15625 -0.3125,0.3125 0,0.21875 0.21875,0.34375 0.5625,0.34375 0.34375,0 0.984375,-0.171875 1.140625,-0.78125 L 2.34375,-1.5625 c 0,-0.046875 0.015625,-0.09375 0.015625,-0.15625 C 2.359375,-2 2.09375,-2.203125 1.75,-2.203125 c -0.609375,0 -0.96875,0.671875 -0.96875,0.765625 0,0.078125 0.078125,0.078125 0.09375,0.078125 0.078125,0 0.09375,-0.015625 0.109375,-0.078125 0.234375,-0.484375 0.578125,-0.59375 0.75,-0.59375 0.1875,0 0.203125,0.171875 0.203125,0.265625 0,0.0625 0,0.078125 -0.015625,0.125 z m 0,0"
               id="path112" />
          </g>
        </g>
      </g>
      <g
         clip-path="url(#clipPath8360)"
         id="g74"
         transform="matrix(0.352778,0,0,0.352778,-0.264583,-5.73285e-4)">
        <g
           fill="#000000"
           fill-opacity="1"
           id="g72">
          <g
             id="use70"
             transform="translate(13.715,3.7360001)">
            <path
               d="M 2.703125,-1.109375 H 4.4375 c 0.0625,0 0.203125,0 0.203125,-0.140625 C 4.640625,-1.390625 4.5,-1.390625 4.4375,-1.390625 H 2.703125 V -3.125 c 0,-0.0625 0,-0.203125 -0.140625,-0.203125 -0.140625,0 -0.140625,0.140625 -0.140625,0.203125 v 1.734375 H 0.6875 c -0.0625,0 -0.203125,0 -0.203125,0.140625 0,0.140625 0.140625,0.140625 0.203125,0.140625 H 2.421875 V 0.625 c 0,0.078125 0,0.203125 0.140625,0.203125 0.140625,0 0.140625,-0.125 0.140625,-0.203125 z m 0,0"
               id="path116" />
          </g>
        </g>
      </g>
      <g
         fill="#000000"
         fill-opacity="1"
         id="g78"
         transform="matrix(0.352778,0,0,0.352778,-0.264583,-5.73285e-4)">
        <g
           id="use76"
           transform="translate(20.463665,3.7360001)">
          <path
             d="M 1.984375,-3.171875 C 1.984375,-3.3125 1.96875,-3.3125 1.796875,-3.3125 1.453125,-3 0.890625,-3 0.796875,-3 H 0.71875 v 0.21875 h 0.078125 c 0.109375,0 0.4375,-0.015625 0.734375,-0.140625 v 2.5 c 0,0.140625 0,0.203125 -0.53125,0.203125 H 0.75 V 0 c 0.265625,-0.015625 0.71875,-0.015625 1,-0.015625 0.296875,0 0.734375,0 1.015625,0.015625 v -0.21875 h -0.25 c -0.53125,0 -0.53125,-0.0625 -0.53125,-0.203125 z m 0,0"
             id="path120" />
        </g>
      </g>
      <g
         clip-path="url(#clipPath5921)"
         id="g84"
         transform="matrix(0.352778,0,0,0.352778,-0.264583,-5.73285e-4)">
        <g
           fill="#000000"
           fill-opacity="1"
           id="g82">
          <g
             id="use80"
             transform="translate(23.855,3.7360001)">
            <path
               d="m 1.34375,-0.0625 c 0,0.46875 -0.25,0.75 -0.390625,0.859375 -0.046875,0.03125 -0.0625,0.046875 -0.0625,0.078125 0,0.03125 0.046875,0.09375 0.09375,0.09375 0.0625,0 0.53125,-0.390625 0.53125,-1.015625 0,-0.34375 -0.15625,-0.5625 -0.375,-0.5625 -0.1875,0 -0.296875,0.15625 -0.296875,0.3125 C 0.84375,-0.140625 0.953125,0 1.140625,0 1.21875,0 1.296875,-0.015625 1.34375,-0.0625 Z m 0,0"
               id="path124" />
          </g>
        </g>
      </g>
      <g
         fill="#000000"
         fill-opacity="1"
         id="g88"
         transform="matrix(0.352778,0,0,0.352778,-0.264583,-5.73285e-4)">
        <g
           id="use86"
           transform="translate(27.358349,3.7360001)">
          <path
             d="m 1.828125,-3.265625 c 0.03125,-0.078125 0.03125,-0.078125 0.03125,-0.109375 0,-0.078125 -0.078125,-0.078125 -0.15625,-0.078125 L 1.09375,-3.40625 c -0.09375,0 -0.109375,0 -0.125,0.03125 -0.015625,0.015625 -0.03125,0.078125 -0.03125,0.109375 0,0.078125 0.078125,0.078125 0.140625,0.078125 0.015625,0 0.09375,0 0.171875,0.015625 0.09375,0.015625 0.09375,0.03125 0.09375,0.0625 0,0.015625 0,0.03125 -0.015625,0.125 l -0.6875,2.75 C 0.625,-0.171875 0.625,-0.15625 0.625,-0.125 c 0,0.109375 0.078125,0.1875 0.1875,0.1875 0.1875,0 0.234375,-0.1875 0.25,-0.265625 l 0.234375,-0.90625 c 0.125,0 0.75,0.03125 0.75,0.390625 0,0.03125 0,0.046875 -0.015625,0.109375 -0.015625,0.078125 -0.015625,0.09375 -0.015625,0.125 0,0.359375 0.3125,0.546875 0.609375,0.546875 0.5,0 0.703125,-0.71875 0.703125,-0.78125 0,-0.0625 -0.078125,-0.0625 -0.109375,-0.0625 -0.078125,0 -0.09375,0.015625 -0.109375,0.109375 -0.046875,0.171875 -0.203125,0.5625 -0.46875,0.5625 -0.1875,0 -0.203125,-0.1875 -0.203125,-0.296875 0,0 0,-0.078125 0.015625,-0.15625 0.015625,-0.078125 0.03125,-0.140625 0.03125,-0.171875 0,-0.4375 -0.5625,-0.515625 -0.890625,-0.546875 0.140625,-0.078125 0.359375,-0.25 0.4375,-0.3125 0.28125,-0.21875 0.5625,-0.4375 0.84375,-0.4375 0.109375,0 0.140625,0.03125 0.171875,0.0625 0,0 -0.03125,0.015625 -0.046875,0.015625 -0.21875,0.078125 -0.21875,0.28125 -0.21875,0.296875 0,0.078125 0.0625,0.203125 0.21875,0.203125 0.09375,0 0.3125,-0.078125 0.3125,-0.359375 0,-0.234375 -0.1875,-0.390625 -0.4375,-0.390625 -0.328125,0 -0.625,0.234375 -0.984375,0.515625 -0.171875,0.140625 -0.34375,0.265625 -0.546875,0.359375 z m 0,0"
             id="path128" />
        </g>
      </g>
      <g
         clip-path="url(#clipPath5597)"
         id="g94"
         transform="matrix(0.352778,0,0,0.352778,-0.264583,-5.73285e-4)">
        <g
           fill="#000000"
           fill-opacity="1"
           id="g92">
          <g
             id="use90"
             transform="translate(31.216999,3.7360001)">
            <path
               d="m 1.953125,-1.25 c 0,-1.6875 -1.28125,-2.484375 -1.390625,-2.484375 -0.078125,0 -0.078125,0.0625 -0.078125,0.0625 0,0.015625 0,0.03125 0.03125,0.0625 0.75,0.59375 1.046875,1.46875 1.046875,2.359375 0,0.453125 -0.078125,0.921875 -0.25,1.328125 C 1.078125,0.640625 0.75,0.921875 0.515625,1.125 0.5,1.125 0.484375,1.15625 0.484375,1.171875 c 0,0.015625 0,0.078125 0.078125,0.078125 0.109375,0 1.390625,-0.796875 1.390625,-2.5 z m 0,0"
               id="path132" />
          </g>
        </g>
      </g>
    </g>
    <g
       inkscape:label=""
       transform="translate(69.249785,179.30139)"
       id="g18435">
      <g
         clip-path="url(#clipPath3719)"
         id="g18394"
         transform="matrix(0.352778,0,0,0.352778,-0.264583,-5.73285e-4)">
        <g
           fill="#000000"
           fill-opacity="1"
           id="g18392">
          <g
             id="g18390"
             transform="translate(0,3.7360001)">
            <path
               d="m 2.203125,-3.625 c 0,0 0.015625,-0.015625 0.015625,-0.046875 0,-0.015625 -0.015625,-0.0625 -0.09375,-0.0625 -0.09375,0 -1.375,0.796875 -1.375,2.484375 0,1.6875 1.28125,2.5 1.375,2.5 0.078125,0 0.09375,-0.046875 0.09375,-0.078125 C 2.21875,1.140625 2.1875,1.125 2.171875,1.109375 1.296875,0.40625 1.125,-0.609375 1.125,-1.25 c 0,-1.21875 0.5625,-2.015625 1.078125,-2.375 z m 0,0"
               id="path102" />
          </g>
        </g>
      </g>
      <g
         fill="#000000"
         fill-opacity="1"
         id="g58"
         transform="matrix(0.352778,0,0,0.352778,-0.264583,-5.73285e-4)">
        <g
           id="g18397"
           transform="translate(2.698,3.7360001)">
          <path
             d="m 1.96875,-3.109375 c 0,-0.125 -0.078125,-0.21875 -0.21875,-0.21875 -0.140625,0 -0.296875,0.140625 -0.296875,0.296875 0,0.140625 0.109375,0.21875 0.21875,0.21875 0.15625,0 0.296875,-0.140625 0.296875,-0.296875 z m 0.234375,2.390625 c 0,-0.0625 -0.078125,-0.0625 -0.09375,-0.0625 -0.09375,0 -0.09375,0.015625 -0.125,0.109375 -0.078125,0.265625 -0.3125,0.5625 -0.5625,0.5625 -0.109375,0 -0.140625,-0.078125 -0.140625,-0.1875 0,-0.109375 0.015625,-0.171875 0.0625,-0.265625 0.03125,-0.09375 0.078125,-0.1875 0.109375,-0.265625 0.015625,-0.046875 0.203125,-0.5 0.28125,-0.6875 0.03125,-0.09375 0.0625,-0.171875 0.0625,-0.25 0,-0.234375 -0.234375,-0.4375 -0.546875,-0.4375 -0.515625,0 -0.796875,0.640625 -0.796875,0.765625 0,0.078125 0.078125,0.078125 0.109375,0.078125 0.078125,0 0.078125,-0.03125 0.109375,-0.09375 0.109375,-0.359375 0.34375,-0.578125 0.5625,-0.578125 0.09375,0 0.15625,0.046875 0.15625,0.1875 0,0.015625 0,0.078125 -0.03125,0.171875 -0.03125,0.09375 -0.265625,0.625 -0.328125,0.796875 -0.046875,0.09375 -0.046875,0.09375 -0.109375,0.265625 -0.03125,0.078125 -0.0625,0.140625 -0.0625,0.21875 0,0.265625 0.25,0.453125 0.546875,0.453125 0.515625,0 0.796875,-0.65625 0.796875,-0.78125 z m 0,0"
             id="path106" />
        </g>
      </g>
      <g
         clip-path="url(#clipPath959)"
         id="g64"
         transform="matrix(0.352778,0,0,0.352778,-0.264583,-5.73285e-4)">
        <g
           fill="#000000"
           fill-opacity="1"
           id="g18402">
          <g
             id="use60"
             transform="translate(6.9860001,3.7360001)">
            <path
               d="M 2.703125,-1.109375 H 4.4375 c 0.0625,0 0.203125,0 0.203125,-0.140625 C 4.640625,-1.390625 4.5,-1.390625 4.4375,-1.390625 H 2.703125 V -3.125 c 0,-0.0625 0,-0.203125 -0.140625,-0.203125 -0.140625,0 -0.140625,0.140625 -0.140625,0.203125 v 1.734375 H 0.6875 c -0.0625,0 -0.203125,0 -0.203125,0.140625 0,0.140625 0.140625,0.140625 0.203125,0.140625 H 2.421875 V 0.625 c 0,0.078125 0,0.203125 0.140625,0.203125 0.140625,0 0.140625,-0.125 0.140625,-0.203125 z m 0,0"
               id="path110" />
          </g>
        </g>
      </g>
      <g
         fill="#000000"
         fill-opacity="1"
         id="g18407"
         transform="matrix(0.352778,0,0,0.352778,-0.264583,-5.73285e-4)">
        <g
           id="use66"
           transform="translate(13.734665,3.7360001)">
          <path
             d="M 1.984375,-3.171875 C 1.984375,-3.3125 1.96875,-3.3125 1.796875,-3.3125 1.453125,-3 0.890625,-3 0.796875,-3 H 0.71875 v 0.21875 h 0.078125 c 0.109375,0 0.4375,-0.015625 0.734375,-0.140625 v 2.5 c 0,0.140625 0,0.203125 -0.53125,0.203125 H 0.75 V 0 c 0.265625,-0.015625 0.71875,-0.015625 1,-0.015625 0.296875,0 0.734375,0 1.015625,0.015625 v -0.21875 h -0.25 c -0.53125,0 -0.53125,-0.0625 -0.53125,-0.203125 z m 0,0"
             id="path114" />
        </g>
      </g>
      <g
         clip-path="url(#clipPath2330)"
         id="g18414"
         transform="matrix(0.352778,0,0,0.352778,-0.264583,-5.73285e-4)">
        <g
           fill="#000000"
           fill-opacity="1"
           id="g18412">
          <g
             id="g18410"
             transform="translate(17.125,3.7360001)">
            <path
               d="m 1.34375,-0.0625 c 0,0.46875 -0.25,0.75 -0.390625,0.859375 -0.046875,0.03125 -0.0625,0.046875 -0.0625,0.078125 0,0.03125 0.046875,0.09375 0.09375,0.09375 0.0625,0 0.53125,-0.390625 0.53125,-1.015625 0,-0.34375 -0.15625,-0.5625 -0.375,-0.5625 -0.1875,0 -0.296875,0.15625 -0.296875,0.3125 C 0.84375,-0.140625 0.953125,0 1.140625,0 1.21875,0 1.296875,-0.015625 1.34375,-0.0625 Z m 0,0"
               id="path118" />
          </g>
        </g>
      </g>
      <g
         clip-path="url(#clipPath524)"
         id="g80"
         transform="matrix(0.352778,0,0,0.352778,-0.264583,-5.73285e-4)">
        <g
           fill="#000000"
           fill-opacity="1"
           id="g18419">
          <g
             id="g18417"
             transform="translate(20.628347,3.7360001)">
            <path
               d="m 2.546875,-3.109375 c 0,-0.109375 -0.09375,-0.21875 -0.21875,-0.21875 -0.15625,0 -0.3125,0.15625 -0.3125,0.296875 0,0.125 0.09375,0.21875 0.21875,0.21875 0.171875,0 0.3125,-0.15625 0.3125,-0.296875 z M 1.453125,0.21875 C 1.359375,0.609375 1.046875,0.859375 0.75,0.859375 0.65625,0.859375 0.609375,0.84375 0.5625,0.828125 0.6875,0.75 0.71875,0.625 0.71875,0.5625 0.71875,0.484375 0.65625,0.359375 0.5,0.359375 c -0.171875,0 -0.3125,0.15625 -0.3125,0.3125 0,0.21875 0.21875,0.34375 0.5625,0.34375 0.34375,0 0.984375,-0.171875 1.140625,-0.78125 L 2.34375,-1.5625 c 0,-0.046875 0.015625,-0.09375 0.015625,-0.15625 C 2.359375,-2 2.09375,-2.203125 1.75,-2.203125 c -0.609375,0 -0.96875,0.671875 -0.96875,0.765625 0,0.078125 0.078125,0.078125 0.09375,0.078125 0.078125,0 0.09375,-0.015625 0.109375,-0.078125 0.234375,-0.484375 0.578125,-0.59375 0.75,-0.59375 0.1875,0 0.203125,0.171875 0.203125,0.265625 0,0.0625 0,0.078125 -0.015625,0.125 z m 0,0"
               id="path122" />
          </g>
        </g>
      </g>
      <g
         clip-path="url(#clipPath993)"
         id="g86"
         transform="matrix(0.352778,0,0,0.352778,-0.264583,-5.73285e-4)">
        <g
           fill="#000000"
           fill-opacity="1"
           id="g18424">
          <g
             id="use82"
             transform="translate(23.508535,3.7360001)">
            <path
               d="m 1.34375,-0.0625 c 0,0.46875 -0.25,0.75 -0.390625,0.859375 -0.046875,0.03125 -0.0625,0.046875 -0.0625,0.078125 0,0.03125 0.046875,0.09375 0.09375,0.09375 0.0625,0 0.53125,-0.390625 0.53125,-1.015625 0,-0.34375 -0.15625,-0.5625 -0.375,-0.5625 -0.1875,0 -0.296875,0.15625 -0.296875,0.3125 C 0.84375,-0.140625 0.953125,0 1.140625,0 1.21875,0 1.296875,-0.015625 1.34375,-0.0625 Z m 0,0"
               id="path126" />
          </g>
        </g>
      </g>
      <g
         fill="#000000"
         fill-opacity="1"
         id="g90"
         transform="matrix(0.352778,0,0,0.352778,-0.264583,-5.73285e-4)">
        <g
           id="use88"
           transform="translate(27.011885,3.7360001)">
          <path
             d="m 1.828125,-3.265625 c 0.03125,-0.078125 0.03125,-0.078125 0.03125,-0.109375 0,-0.078125 -0.078125,-0.078125 -0.15625,-0.078125 L 1.09375,-3.40625 c -0.09375,0 -0.109375,0 -0.125,0.03125 -0.015625,0.015625 -0.03125,0.078125 -0.03125,0.109375 0,0.078125 0.078125,0.078125 0.140625,0.078125 0.015625,0 0.09375,0 0.171875,0.015625 0.09375,0.015625 0.09375,0.03125 0.09375,0.0625 0,0.015625 0,0.03125 -0.015625,0.125 l -0.6875,2.75 C 0.625,-0.171875 0.625,-0.15625 0.625,-0.125 c 0,0.109375 0.078125,0.1875 0.1875,0.1875 0.1875,0 0.234375,-0.1875 0.25,-0.265625 l 0.234375,-0.90625 c 0.125,0 0.75,0.03125 0.75,0.390625 0,0.03125 0,0.046875 -0.015625,0.109375 -0.015625,0.078125 -0.015625,0.09375 -0.015625,0.125 0,0.359375 0.3125,0.546875 0.609375,0.546875 0.5,0 0.703125,-0.71875 0.703125,-0.78125 0,-0.0625 -0.078125,-0.0625 -0.109375,-0.0625 -0.078125,0 -0.09375,0.015625 -0.109375,0.109375 -0.046875,0.171875 -0.203125,0.5625 -0.46875,0.5625 -0.1875,0 -0.203125,-0.1875 -0.203125,-0.296875 0,0 0,-0.078125 0.015625,-0.15625 0.015625,-0.078125 0.03125,-0.140625 0.03125,-0.171875 0,-0.4375 -0.5625,-0.515625 -0.890625,-0.546875 0.140625,-0.078125 0.359375,-0.25 0.4375,-0.3125 0.28125,-0.21875 0.5625,-0.4375 0.84375,-0.4375 0.109375,0 0.140625,0.03125 0.171875,0.0625 0,0 -0.03125,0.015625 -0.046875,0.015625 -0.21875,0.078125 -0.21875,0.28125 -0.21875,0.296875 0,0.078125 0.0625,0.203125 0.21875,0.203125 0.09375,0 0.3125,-0.078125 0.3125,-0.359375 0,-0.234375 -0.1875,-0.390625 -0.4375,-0.390625 -0.328125,0 -0.625,0.234375 -0.984375,0.515625 -0.171875,0.140625 -0.34375,0.265625 -0.546875,0.359375 z m 0,0"
             id="path130" />
        </g>
      </g>
      <g
         clip-path="url(#clipPath3741)"
         id="g96"
         transform="matrix(0.352778,0,0,0.352778,-0.264583,-5.73285e-4)">
        <g
           fill="#000000"
           fill-opacity="1"
           id="g18432">
          <g
             id="use92"
             transform="translate(30.871,3.7360001)">
            <path
               d="m 1.953125,-1.25 c 0,-1.6875 -1.28125,-2.484375 -1.390625,-2.484375 -0.078125,0 -0.078125,0.0625 -0.078125,0.0625 0,0.015625 0,0.03125 0.03125,0.0625 0.75,0.59375 1.046875,1.46875 1.046875,2.359375 0,0.453125 -0.078125,0.921875 -0.25,1.328125 C 1.078125,0.640625 0.75,0.921875 0.515625,1.125 0.5,1.125 0.484375,1.15625 0.484375,1.171875 c 0,0.015625 0,0.078125 0.078125,0.078125 0.109375,0 1.390625,-0.796875 1.390625,-2.5 z m 0,0"
               id="path134" />
          </g>
        </g>
      </g>
    </g>
    <g
       inkscape:label=""
       transform="translate(83.668986,136.57294)"
       id="g20393">
      <g
         clip-path="url(#clipPath5423)"
         id="g20337"
         transform="matrix(0.352778,0,0,0.352778,-0.264583,-5.73285e-4)">
        <g
           fill="#000000"
           fill-opacity="1"
           id="g20335">
          <g
             id="g20333"
             transform="translate(0,3.7360001)">
            <path
               d="m 2.203125,-3.625 c 0,0 0.015625,-0.015625 0.015625,-0.046875 0,-0.015625 -0.015625,-0.0625 -0.09375,-0.0625 -0.09375,0 -1.375,0.796875 -1.375,2.484375 0,1.6875 1.28125,2.5 1.375,2.5 0.078125,0 0.09375,-0.046875 0.09375,-0.078125 C 2.21875,1.140625 2.1875,1.125 2.171875,1.109375 1.296875,0.40625 1.125,-0.609375 1.125,-1.25 c 0,-1.21875 0.5625,-2.015625 1.078125,-2.375 z m 0,0"
               id="path98" />
          </g>
        </g>
      </g>
      <g
         clip-path="url(#clipPath9625)"
         id="g20349"
         transform="matrix(0.352778,0,0,0.352778,-0.264583,-5.73285e-4)">
        <g
           fill="#000000"
           fill-opacity="1"
           id="g20347">
          <g
             id="g20341"
             transform="translate(2.698,3.7360001)">
            <path
               d="m 1.96875,-3.109375 c 0,-0.125 -0.078125,-0.21875 -0.21875,-0.21875 -0.140625,0 -0.296875,0.140625 -0.296875,0.296875 0,0.140625 0.109375,0.21875 0.21875,0.21875 0.15625,0 0.296875,-0.140625 0.296875,-0.296875 z m 0.234375,2.390625 c 0,-0.0625 -0.078125,-0.0625 -0.09375,-0.0625 -0.09375,0 -0.09375,0.015625 -0.125,0.109375 -0.078125,0.265625 -0.3125,0.5625 -0.5625,0.5625 -0.109375,0 -0.140625,-0.078125 -0.140625,-0.1875 0,-0.109375 0.015625,-0.171875 0.0625,-0.265625 0.03125,-0.09375 0.078125,-0.1875 0.109375,-0.265625 0.015625,-0.046875 0.203125,-0.5 0.28125,-0.6875 0.03125,-0.09375 0.0625,-0.171875 0.0625,-0.25 0,-0.234375 -0.234375,-0.4375 -0.546875,-0.4375 -0.515625,0 -0.796875,0.640625 -0.796875,0.765625 0,0.078125 0.078125,0.078125 0.109375,0.078125 0.078125,0 0.078125,-0.03125 0.109375,-0.09375 0.109375,-0.359375 0.34375,-0.578125 0.5625,-0.578125 0.09375,0 0.15625,0.046875 0.15625,0.1875 0,0.015625 0,0.078125 -0.03125,0.171875 -0.03125,0.09375 -0.265625,0.625 -0.328125,0.796875 -0.046875,0.09375 -0.046875,0.09375 -0.109375,0.265625 -0.03125,0.078125 -0.0625,0.140625 -0.0625,0.21875 0,0.265625 0.25,0.453125 0.546875,0.453125 0.515625,0 0.796875,-0.65625 0.796875,-0.78125 z m 0,0"
               id="path20339" />
          </g>
          <g
             id="g20345"
             transform="translate(5.3560219,3.7360001)">
            <path
               d="m 1.34375,-0.0625 c 0,0.46875 -0.25,0.75 -0.390625,0.859375 -0.046875,0.03125 -0.0625,0.046875 -0.0625,0.078125 0,0.03125 0.046875,0.09375 0.09375,0.09375 0.0625,0 0.53125,-0.390625 0.53125,-1.015625 0,-0.34375 -0.15625,-0.5625 -0.375,-0.5625 -0.1875,0 -0.296875,0.15625 -0.296875,0.3125 C 0.84375,-0.140625 0.953125,0 1.140625,0 1.21875,0 1.296875,-0.015625 1.34375,-0.0625 Z m 0,0"
               id="path20343" />
          </g>
        </g>
      </g>
      <g
         clip-path="url(#clipPath5425)"
         id="g20357"
         transform="matrix(0.352778,0,0,0.352778,-0.264583,-5.73285e-4)">
        <g
           fill="#000000"
           fill-opacity="1"
           id="g20355">
          <g
             id="g20353"
             transform="translate(8.8593702,3.7360001)">
            <path
               d="m 2.546875,-3.109375 c 0,-0.109375 -0.09375,-0.21875 -0.21875,-0.21875 -0.15625,0 -0.3125,0.15625 -0.3125,0.296875 0,0.125 0.09375,0.21875 0.21875,0.21875 0.171875,0 0.3125,-0.15625 0.3125,-0.296875 z M 1.453125,0.21875 C 1.359375,0.609375 1.046875,0.859375 0.75,0.859375 0.65625,0.859375 0.609375,0.84375 0.5625,0.828125 0.6875,0.75 0.71875,0.625 0.71875,0.5625 0.71875,0.484375 0.65625,0.359375 0.5,0.359375 c -0.171875,0 -0.3125,0.15625 -0.3125,0.3125 0,0.21875 0.21875,0.34375 0.5625,0.34375 0.34375,0 0.984375,-0.171875 1.140625,-0.78125 L 2.34375,-1.5625 c 0,-0.046875 0.015625,-0.09375 0.015625,-0.15625 C 2.359375,-2 2.09375,-2.203125 1.75,-2.203125 c -0.609375,0 -0.96875,0.671875 -0.96875,0.765625 0,0.078125 0.078125,0.078125 0.09375,0.078125 0.078125,0 0.09375,-0.015625 0.109375,-0.078125 0.234375,-0.484375 0.578125,-0.59375 0.75,-0.59375 0.1875,0 0.203125,0.171875 0.203125,0.265625 0,0.0625 0,0.078125 -0.015625,0.125 z m 0,0"
               id="path20351" />
          </g>
        </g>
      </g>
      <g
         clip-path="url(#clipPath8501)"
         id="g20365"
         transform="matrix(0.352778,0,0,0.352778,-0.264583,-5.73285e-4)">
        <g
           fill="#000000"
           fill-opacity="1"
           id="g20363">
          <g
             id="g20361"
             transform="translate(11.739558,3.7360001)">
            <path
               d="m 1.34375,-0.0625 c 0,0.46875 -0.25,0.75 -0.390625,0.859375 -0.046875,0.03125 -0.0625,0.046875 -0.0625,0.078125 0,0.03125 0.046875,0.09375 0.09375,0.09375 0.0625,0 0.53125,-0.390625 0.53125,-1.015625 0,-0.34375 -0.15625,-0.5625 -0.375,-0.5625 -0.1875,0 -0.296875,0.15625 -0.296875,0.3125 C 0.84375,-0.140625 0.953125,0 1.140625,0 1.21875,0 1.296875,-0.015625 1.34375,-0.0625 Z m 0,0"
               id="path20359" />
          </g>
        </g>
      </g>
      <g
         fill="#000000"
         fill-opacity="1"
         id="g20371"
         transform="matrix(0.352778,0,0,0.352778,-0.264583,-5.73285e-4)">
        <g
           id="g20369"
           transform="translate(15.242906,3.7360001)">
          <path
             d="m 1.828125,-3.265625 c 0.03125,-0.078125 0.03125,-0.078125 0.03125,-0.109375 0,-0.078125 -0.078125,-0.078125 -0.15625,-0.078125 L 1.09375,-3.40625 c -0.09375,0 -0.109375,0 -0.125,0.03125 -0.015625,0.015625 -0.03125,0.078125 -0.03125,0.109375 0,0.078125 0.078125,0.078125 0.140625,0.078125 0.015625,0 0.09375,0 0.171875,0.015625 0.09375,0.015625 0.09375,0.03125 0.09375,0.0625 0,0.015625 0,0.03125 -0.015625,0.125 l -0.6875,2.75 C 0.625,-0.171875 0.625,-0.15625 0.625,-0.125 c 0,0.109375 0.078125,0.1875 0.1875,0.1875 0.1875,0 0.234375,-0.1875 0.25,-0.265625 l 0.234375,-0.90625 c 0.125,0 0.75,0.03125 0.75,0.390625 0,0.03125 0,0.046875 -0.015625,0.109375 -0.015625,0.078125 -0.015625,0.09375 -0.015625,0.125 0,0.359375 0.3125,0.546875 0.609375,0.546875 0.5,0 0.703125,-0.71875 0.703125,-0.78125 0,-0.0625 -0.078125,-0.0625 -0.109375,-0.0625 -0.078125,0 -0.09375,0.015625 -0.109375,0.109375 -0.046875,0.171875 -0.203125,0.5625 -0.46875,0.5625 -0.1875,0 -0.203125,-0.1875 -0.203125,-0.296875 0,0 0,-0.078125 0.015625,-0.15625 0.015625,-0.078125 0.03125,-0.140625 0.03125,-0.171875 0,-0.4375 -0.5625,-0.515625 -0.890625,-0.546875 0.140625,-0.078125 0.359375,-0.25 0.4375,-0.3125 0.28125,-0.21875 0.5625,-0.4375 0.84375,-0.4375 0.109375,0 0.140625,0.03125 0.171875,0.0625 0,0 -0.03125,0.015625 -0.046875,0.015625 -0.21875,0.078125 -0.21875,0.28125 -0.21875,0.296875 0,0.078125 0.0625,0.203125 0.21875,0.203125 0.09375,0 0.3125,-0.078125 0.3125,-0.359375 0,-0.234375 -0.1875,-0.390625 -0.4375,-0.390625 -0.328125,0 -0.625,0.234375 -0.984375,0.515625 -0.171875,0.140625 -0.34375,0.265625 -0.546875,0.359375 z m 0,0"
             id="path20367" />
        </g>
      </g>
      <g
         clip-path="url(#clipPath8288)"
         id="g20379"
         transform="matrix(0.352778,0,0,0.352778,-0.264583,-5.73285e-4)">
        <g
           fill="#000000"
           fill-opacity="1"
           id="g20377">
          <g
             id="g20375"
             transform="translate(20.732,3.7360001)">
            <path
               d="M 2.703125,-1.109375 H 4.4375 c 0.0625,0 0.203125,0 0.203125,-0.140625 C 4.640625,-1.390625 4.5,-1.390625 4.4375,-1.390625 H 2.703125 V -3.125 c 0,-0.0625 0,-0.203125 -0.140625,-0.203125 -0.140625,0 -0.140625,0.140625 -0.140625,0.203125 v 1.734375 H 0.6875 c -0.0625,0 -0.203125,0 -0.203125,0.140625 0,0.140625 0.140625,0.140625 0.203125,0.140625 H 2.421875 V 0.625 c 0,0.078125 0,0.203125 0.140625,0.203125 0.140625,0 0.140625,-0.125 0.140625,-0.203125 z m 0,0"
               id="path20373" />
          </g>
        </g>
      </g>
      <g
         clip-path="url(#clipPath5179)"
         id="g20391"
         transform="matrix(0.352778,0,0,0.352778,-0.264583,-5.73285e-4)">
        <g
           fill="#000000"
           fill-opacity="1"
           id="g20389">
          <g
             id="g20383"
             transform="translate(27.480665,3.7360001)">
            <path
               d="M 1.984375,-3.171875 C 1.984375,-3.3125 1.96875,-3.3125 1.796875,-3.3125 1.453125,-3 0.890625,-3 0.796875,-3 H 0.71875 v 0.21875 h 0.078125 c 0.109375,0 0.4375,-0.015625 0.734375,-0.140625 v 2.5 c 0,0.140625 0,0.203125 -0.53125,0.203125 H 0.75 V 0 c 0.265625,-0.015625 0.71875,-0.015625 1,-0.015625 0.296875,0 0.734375,0 1.015625,0.015625 v -0.21875 h -0.25 c -0.53125,0 -0.53125,-0.0625 -0.53125,-0.203125 z m 0,0"
               id="path20381" />
          </g>
          <g
             id="g20387"
             transform="translate(30.870937,3.7360001)">
            <path
               d="m 1.953125,-1.25 c 0,-1.6875 -1.28125,-2.484375 -1.390625,-2.484375 -0.078125,0 -0.078125,0.0625 -0.078125,0.0625 0,0.015625 0,0.03125 0.03125,0.0625 0.75,0.59375 1.046875,1.46875 1.046875,2.359375 0,0.453125 -0.078125,0.921875 -0.25,1.328125 C 1.078125,0.640625 0.75,0.921875 0.515625,1.125 0.5,1.125 0.484375,1.15625 0.484375,1.171875 c 0,0.015625 0,0.078125 0.078125,0.078125 0.109375,0 1.390625,-0.796875 1.390625,-2.5 z m 0,0"
               id="path20385" />
          </g>
        </g>
      </g>
    </g>
    <g
       inkscape:label=""
       transform="translate(66.336947,183.93682)"
       id="g25755">
      <g
         clip-path="url(#clipPath741)"
         id="g25753"
         transform="matrix(0.352778,0,0,0.352778,-0.132292,0.0235039)">
        <g
           fill="#000000"
           fill-opacity="1"
           id="g25751">
          <g
             id="g25749"
             transform="translate(0,2.5739999)">
            <path
               d="m 3.375,-2.359375 c -0.21875,0.0625 -0.265625,0.234375 -0.265625,0.328125 0,0.1875 0.15625,0.234375 0.234375,0.234375 0.1875,0 0.359375,-0.140625 0.359375,-0.375 0,-0.328125 -0.359375,-0.46875 -0.65625,-0.46875 -0.40625,0 -0.640625,0.3125 -0.703125,0.421875 -0.078125,-0.15625 -0.3125,-0.421875 -0.765625,-0.421875 -0.6875,0 -1.09375,0.71875 -1.09375,0.921875 0,0.03125 0.03125,0.078125 0.109375,0.078125 0.09375,0 0.109375,-0.03125 0.125,-0.078125 0.15625,-0.484375 0.5625,-0.71875 0.84375,-0.71875 0.296875,0 0.390625,0.1875 0.390625,0.390625 0,0.0625 0,0.125 -0.046875,0.3125 -0.140625,0.546875 -0.265625,1.09375 -0.296875,1.171875 -0.09375,0.21875 -0.3125,0.421875 -0.5625,0.421875 -0.03125,0 -0.203125,0 -0.34375,-0.09375 C 0.9375,-0.3125 0.96875,-0.5 0.96875,-0.546875 c 0,-0.15625 -0.125,-0.234375 -0.25,-0.234375 -0.15625,0 -0.34375,0.125 -0.34375,0.375 0,0.34375 0.375,0.46875 0.65625,0.46875 0.34375,0 0.59375,-0.234375 0.703125,-0.421875 0.125,0.25 0.40625,0.421875 0.75,0.421875 0.703125,0 1.09375,-0.734375 1.09375,-0.921875 0,-0.015625 0,-0.09375 -0.109375,-0.09375 -0.078125,0 -0.09375,0.046875 -0.109375,0.109375 C 3.1875,-0.328125 2.765625,-0.140625 2.5,-0.140625 c -0.21875,0 -0.375,-0.125 -0.375,-0.375 0,-0.125 0.015625,-0.25 0.078125,-0.453125 L 2.390625,-1.75 c 0.0625,-0.234375 0.09375,-0.34375 0.21875,-0.484375 C 2.6875,-2.328125 2.84375,-2.4375 3.03125,-2.4375 c 0.03125,0 0.203125,0 0.34375,0.078125 z m 0,0"
               id="path25747" />
          </g>
        </g>
      </g>
    </g>
    <g
       inkscape:label=""
       transform="translate(116.32436,163.37168)"
       id="g28015">
      <g
         clip-path="url(#clipPath2110)"
         id="g17"
         transform="matrix(0.352778,0,0,0.352778,-0.12678,0.0235039)">
        <g
           fill="#000000"
           fill-opacity="1"
           id="g15">
          <g
             id="use13"
             transform="translate(0,2.5739999)">
            <path
               d="m 3.5625,-2.296875 c 0.015625,-0.046875 0.015625,-0.0625 0.015625,-0.078125 0,-0.078125 -0.046875,-0.203125 -0.203125,-0.203125 -0.109375,0 -0.203125,0.0625 -0.25,0.15625 -0.03125,0.03125 -0.0625,0.21875 -0.09375,0.328125 l -0.3125,1.25 c -0.046875,0.171875 -0.0625,0.265625 -0.3125,0.484375 -0.0625,0.0625 -0.25,0.21875 -0.515625,0.21875 -0.4375,0 -0.4375,-0.390625 -0.4375,-0.5 0,-0.25 0.078125,-0.53125 0.34375,-1.1875 0.046875,-0.140625 0.0625,-0.1875 0.0625,-0.296875 0,-0.328125 -0.296875,-0.515625 -0.59375,-0.515625 -0.609375,0 -0.90625,0.796875 -0.90625,0.921875 0,0.03125 0.03125,0.078125 0.109375,0.078125 0.09375,0 0.109375,-0.03125 0.125,-0.078125 C 0.765625,-2.296875 1.078125,-2.4375 1.25,-2.4375 c 0.109375,0 0.15625,0.078125 0.15625,0.21875 0,0.125 -0.078125,0.328125 -0.140625,0.484375 -0.21875,0.53125 -0.28125,0.796875 -0.28125,1.015625 0,0.5625 0.421875,0.78125 0.890625,0.78125 0.078125,0 0.359375,0 0.6875,-0.28125 -0.078125,0.328125 -0.140625,0.5625 -0.421875,0.875 -0.109375,0.125 -0.375,0.359375 -0.734375,0.359375 -0.0625,0 -0.3125,0 -0.453125,-0.15625 C 1.21875,0.8125 1.25,0.578125 1.25,0.53125 1.25,0.359375 1.125,0.296875 1,0.296875 c -0.140625,0 -0.34375,0.125 -0.34375,0.390625 0,0.296875 0.28125,0.53125 0.75,0.53125 C 2.046875,1.21875 2.8125,0.75 2.984375,0 Z m 0,0"
               id="path23" />
          </g>
        </g>
      </g>
    </g>
    <g
       inkscape:label=""
       transform="translate(83.93554,132.08011)"
       id="g30300">
      <g
         clip-path="url(#clipPath8157)"
         id="g30298"
         transform="matrix(0.352778,0,0,0.352778,-0.159852,0.0235039)">
        <g
           fill="#000000"
           fill-opacity="1"
           id="g30296">
          <g
             id="g30294"
             transform="translate(0,2.5739999)">
            <path
               d="M 1.125,-0.53125 C 1.3125,-0.71875 1.53125,-0.890625 1.84375,-1.125 2.25,-1.4375 2.484375,-1.625 2.75,-1.859375 3.09375,-2.171875 3.3125,-2.5 3.3125,-2.5625 c 0,-0.078125 -0.078125,-0.078125 -0.109375,-0.078125 -0.0625,0 -0.078125,0.015625 -0.109375,0.078125 -0.109375,0.15625 -0.28125,0.34375 -0.46875,0.34375 -0.140625,0 -0.265625,-0.109375 -0.34375,-0.171875 -0.15625,-0.140625 -0.296875,-0.25 -0.515625,-0.25 -0.5,0 -0.84375,0.53125 -0.84375,0.703125 0,0.078125 0.046875,0.09375 0.109375,0.09375 0.078125,0 0.09375,-0.03125 0.125,-0.078125 0.078125,-0.21875 0.40625,-0.234375 0.53125,-0.234375 0.15625,0 0.3125,0.03125 0.4375,0.0625 0.296875,0.0625 0.375,0.0625 0.5,0.0625 -0.140625,0.140625 -0.28125,0.265625 -0.671875,0.5625 -0.484375,0.375 -0.65625,0.5 -0.90625,0.734375 -0.3125,0.28125 -0.59375,0.625 -0.59375,0.703125 0,0.09375 0.078125,0.09375 0.109375,0.09375 0.0625,0 0.078125,-0.015625 0.109375,-0.0625 0.234375,-0.3125 0.46875,-0.359375 0.5625,-0.359375 0.140625,0 0.25,0.078125 0.359375,0.171875 0.171875,0.140625 0.296875,0.25 0.515625,0.25 0.671875,0 1.09375,-0.734375 1.09375,-0.953125 0,-0.046875 -0.0625,-0.078125 -0.109375,-0.078125 -0.09375,0 -0.109375,0.03125 -0.125,0.09375 -0.109375,0.328125 -0.515625,0.453125 -0.796875,0.453125 -0.140625,0 -0.28125,-0.03125 -0.4375,-0.0625 -0.171875,-0.03125 -0.328125,-0.0625 -0.46875,-0.0625 -0.03125,0 -0.078125,0 -0.140625,0.015625 z m 0,0"
               id="path30292" />
          </g>
        </g>
      </g>
    </g>
  </g>
</svg>
